<svg id="Camada_1" xmlns="http://www.w3.org/2000/svg" viewBox="0 0 159 159"><style>.st1{fill:#1f0f3d}</style><path d="M79.5 159C35.6 159 0 123.4 0 79.5S35.6 0 79.5 0 159 35.6 159 79.5 123.4 159 79.5 159z" fill="#fff"/><path class="st1" d="M44.5 115.4c1.2-3.5 2.3-6.9 3.5-10.2.9-2.6 1.8-5.1 2.6-7.7.1-.3.1-.7-.1-.9-1.9-3.2-3.3-6.6-4-10.3-2.3-12.4 1-23.1 10-31.9 5.7-5.5 12.6-8.7 20.5-9.3 13.1-1.1 23.8 3.7 31.7 14.3 3.8 5.1 5.9 10.9 6.3 17.3.7 13.6-4.7 24.2-16 31.6-6.7 4.4-14.2 6-22.3 5.2-4.4-.5-8.6-1.7-12.5-3.8-.4-.2-.7-.2-1-.1l-18 5.7c-.3 0-.5 0-.7.1zm8.7-8.5c.3-.1.5-.1.7-.2 3.3-1.1 6.6-2.1 10-3.2.4-.1.7-.1 1.1.1 3.4 2.2 7.2 3.6 11.2 4.1 8.1 1.1 15.4-.7 21.9-5.6 3.5-2.6 6.2-5.9 8.3-9.7 2.8-5.3 3.8-11 3-17-1-7.6-4.6-13.8-10.4-18.7-4.6-3.8-9.8-5.9-15.8-6.5-6.2-.5-12.1.7-17.5 3.9-3.8 2.2-6.9 5.1-9.4 8.7-2.4 3.5-3.9 7.3-4.6 11.5-.5 3.2-.5 6.3 0 9.5.7 4.3 2.3 8.2 4.9 11.7.2.3.3.6.1.9-.6 1.8-1.2 3.5-1.8 5.3-.6 1.8-1.1 3.5-1.7 5.2z"/><path class="st1" d="M69.6 63.6h.3c1.3-.2 2 .5 2.5 1.7.8 1.9 1.5 3.8 2.4 5.7.5 1 .3 1.9-.3 2.7-.5.7-1.1 1.4-1.7 2.1-.6.6-.6 1-.2 1.8 1.8 3 4.1 5.7 7.1 7.6 1.4.9 3 1.6 4.5 2.3.8.4 1.3.3 1.9-.5.8-1 1.6-1.9 2.4-2.9.7-.9 1.1-1 2.1-.6 2.3 1 4.5 2.1 6.7 3.2.5.3.7.7.7 1.3-.2 3.5-1.1 5.1-4.9 6.8-1.8.8-3.7 1-5.6.3-2.6-.9-5.3-1.8-7.8-2.9-2.9-1.3-5.3-3.3-7.5-5.6-3-3-5.6-6.3-7.4-10.2-1.3-2.7-1.6-5.5-.5-8.4.6-1.6 1.6-2.8 2.8-3.9.6-.6 1.6-.6 2.5-.5z"/></svg>