<svg xmlns="http://www.w3.org/2000/svg" viewBox="0 0 36.8 39.1"><path d="M24.7 36.6c-1.5 0-2.9-.3-4.4-.8-1.3-.5-2.6-1.1-3.8-1.9-1.4-.9-2.7-2-3.9-3.1-1.3-1.2-2.5-2.5-3.7-3.9-1.3-1.6-2.6-3.3-3.6-5-.8-1.4-1.5-2.8-2-4.3-.4-1-.6-2.1-.7-3.2-.2-1.7-.1-3.3.4-4.8.4-1.2.9-2.4 1.7-3.4.5-.7 1.2-1.3 1.9-1.9.4-.3.7-.7 1.1-1 .3-.3.6-.5 1-.6.6-.3 1.3-.2 1.8.1.6.3 1.1.8 1.5 1.4.6.7 1 1.5 1.5 2.3.4.6.7 1.1 1 1.7.3.6.5 1.2.6 1.9.1.9-.1 1.8-.8 2.5-.4.4-.8.7-1.2 1.1-.4.4-.8.6-1.2 1-.5.4-.9.8-1.1 1.5-.1.5-.1 1 0 1.6.2.7.5 1.4.8 2 .6 1.1 1.4 2.1 2.2 3.1.8.9 1.6 1.8 2.4 2.6.8.7 1.6 1.4 2.6 2 .5.3 1.1.5 1.7.5.7 0 1.3-.2 1.8-.6l.3-.3c.5-.5 1-1 1.5-1.4.3-.3.6-.5.9-.7.8-.5 1.7-.5 2.6-.3.7.2 1.4.6 2 1.1.7.6 1.4 1.2 2.2 1.8.5.4 1 .9 1.4 1.4.3.4.6.8.7 1.2.3.8.1 1.5-.4 2.1-.2.3-.5.5-.8.8-.5.4-1 .9-1.5 1.3-1 .9-2.2 1.5-3.5 1.9-.7.2-1.8.3-3 .3z" fill="none" stroke="#1f0f3d" stroke-width="5" stroke-miterlimit="10"/></svg>