<svg id="Camada_1" xmlns="http://www.w3.org/2000/svg" viewBox="0 0 42.9 34.8"><style>.st0{stroke:#1f0f3d;stroke-width:3;stroke-miterlimit:10}</style><path class="st0" d="M33.1 33.3H9.8c-4.6 0-8.3-4.2-8.3-9.3V10.8c0-5.1 3.7-9.3 8.3-9.3h23.3c4.6 0 8.3 4.2 8.3 9.3V24c0 5.1-3.8 9.3-8.3 9.3zM9.8 4.5c-3.1 0-5.6 2.8-5.6 6.3V24c0 3.5 2.5 6.3 5.6 6.3h23.3c3.1 0 5.6-2.8 5.6-6.3V10.8c0-3.5-2.5-6.3-5.6-6.3H9.8z"/><path class="st0" d="M21.4 20.2c-1.4 0-2.9-.5-4.1-1.4l-.2-.1L4.2 5.6 6 3.4l12.8 13c1.5 1.1 3.5 1.1 5 .1L37.3 3.9 39 6.2 25.4 18.9c-1.2.9-2.6 1.3-4 1.3z"/></svg>