<svg xmlns="http://www.w3.org/2000/svg" viewBox="0 0 23.6 45.1"><path d="M0 24.7v-8h6.9c.1 0 .1-.1.1-.1v-5.8c0-.7 0-1.4.1-2 .1-.8.3-1.5.5-2.3.5-1.6 1.4-3 2.7-4.2.7-.5 1.4-1 2.2-1.4.9-.4 1.9-.7 2.9-.8.3-.1.7-.1 1-.1 0 0 .1 0 .1-.1h.4c0 .1.1 0 .1 0h1.8c.2.1.2.1.3.1.6 0 1.3.1 1.9.1.5.1 1 .1 1.5.1.4.1.8.1 1.2.1v7.2h-3.9c-.4 0-.7 0-1.1.1-.5.1-1 .1-1.4.3-.7.3-1.3.8-1.5 1.5-.2.6-.3 1.2-.3 1.8v5.2c0 .1 0 .1.1.1h7.8c.1 0 .1 0 .1.1-.1.4-.1.8-.2 1.2-.1.4-.1.9-.2 1.3s-.1.9-.2 1.3-.1.9-.2 1.3-.1.9-.2 1.3-.1.9-.2 1.3c0 .1 0 .1-.2.1h-6.8c-.1 0-.1 0-.1.1V45H6.9V24.5c0-.1 0-.1-.1-.1H.1c0 .3 0 .3-.1.3z" fill="#1f0f3d"/></svg>