<svg id="Camada_1" xmlns="http://www.w3.org/2000/svg" viewBox="0 0 46 46"><style/><g id="XMLID_14_"><path d="M28.1 34.2L23 29.6l-5.1 4.6-.4-.2c-2.9-1.3-4.3-3.4-4.9-4.9-.7-1.6-.6-3-.6-3v-.3l1.2-1.1-1.8-1.6-.1-.1c-1.8-3.5-1-6.3-.1-8 1-1.8 2.4-2.8 2.5-2.9l.4-.3 4.4 4 4.5-4 4.5 4 4.4-4 .4.3c.1 0 1.5 1 2.5 2.9.9 1.7 1.7 4.5-.1 8l-.1.1-1.8 1.6 1.2 1.1v.3c0 .1 0 1.4-.6 3-.6 1.5-2 3.6-4.9 4.9l-.4.2zm-14.9-7.9c0 .4.1 1.3.6 2.3.7 1.8 2.1 3.1 3.9 4.1l5.3-4.8 5.3 4.8c3.9-2 4.4-5.5 4.5-6.4L31 24.7l2.6-2.4c1.2-2.4 1.2-4.6.1-6.7-.6-1.1-1.3-1.8-1.8-2.2l-4.5 4.1-4.5-4-4.5 4-4.4-4.1c-.4.4-1.2 1.1-1.8 2.2-1.1 2.1-1.1 4.3.1 6.7l2.6 2.4-1.7 1.6zm15.2 4.1l-4.5-3.9V23l8-7.2.4.5c.1.1.5.6.7 1.6.2.9.1 2.2-1.1 3.6l-3.5 3.2 2 1.8v.2c0 .1.4 1.7-1.5 3.4l-.5.3zm-3.2-4.5l3.2 2.8c.7-.8.8-1.4.8-1.7l-2.6-2.4 4.4-4c.7-.8 1-1.7.9-2.5 0-.2-.1-.4-.2-.5l-6.6 5.9v1.9l.1.5zm-7.6 4.5l-.4-.4c-1.9-1.7-1.6-3.3-1.5-3.4v-.2l2-1.8-3.5-3.2c-1.3-1.5-1.3-2.8-1.1-3.6.2-.9.7-1.5.7-1.6l.4-.5 8 7.2v3.4l-4.6 4.1zm-.8-3.3c0 .3.1.9.8 1.7l3.2-2.8v-2.4l-6.6-5.9c-.1.1-.1.3-.2.5 0 .8.3 1.6 1 2.5l4.4 4-2.6 2.4zm6.2-5.6l-3.1-2.8 3.1-2.8 3.1 2.8-3.1 2.8zm-1.3-2.8l1.3 1.2 1.3-1.2-1.3-1.2-1.3 1.2z" fill="#fff" id="XMLID_15_"/></g></svg>