<svg id="Camada_1" xmlns="http://www.w3.org/2000/svg" viewBox="0 0 932.3 712"><style>.st0{fill:#1f0f3d}.st1{fill:#110821}</style><path class="st0" d="M0 0h932.3v712H0z"/><path class="st1" d="M464.4 224c-24.9 0-45.1-20.2-45.1-45.1 0-24.9 20.2-45.1 45.1-45.1 24.8 0 45.1 20.2 45.1 45.1-.1 24.9-20.3 45.1-45.1 45.1zm0-68.1c-12.7 0-23.1 10.3-23.1 23.1s10.3 23 23.1 23c12.7 0 23-10.3 23-23s-10.3-23.1-23-23.1zM350.8 224c-24.9 0-45.1-20.2-45.1-45.1 0-24.9 20.2-45.1 45.1-45.1 24.8 0 45.1 20.2 45.1 45.1 0 24.9-20.2 45.1-45.1 45.1zm0-68.1c-12.7 0-23.1 10.3-23.1 23.1 0 12.7 10.3 23.1 23.1 23.1 12.7 0 23.1-10.3 23.1-23 0-12.9-10.4-23.2-23.1-23.2zm79.9 418.2h-46.5c-42.8-2.8-123.8-27.7-123.8-101.8v-238h294.5v238.1c0 74.1-81 99-123.8 101.8l-.4-.1zm-45.4-22h44.6c7.5-.6 102.9-9.1 102.9-79.8v-216H282.4V398l113.5 68.1v62.7h-11c-78.2 0-79.1-55.9-79.1-56.4V460l-23.4-13.8v26.2c0 70.6 95.3 79.2 102.9 79.7zm-57.5-101.2v21.4c.1 3.2 2.1 30.1 46.1 33.9v-27.7l-46.1-27.6zm102.5 77.8h-11v-72.9l-113.5-68.1v-108h90.1v111.2l23.4 15.5V279.7h90.1v192.6c0 .6-.9 56.4-79.1 56.4zm11-85.3v62.9c44-3.9 46-30.8 46.1-34.1V301.7h-46.1v141.7zm-113.5-68.1l49.6 29.8-3.5-2.3v-101h-46.1v73.5z"/><path class="st1" d="M384.9 396.8V284.9h-68.1v101.8l68.1 35.7zm-72 51.4l11 51.4 61 18.1-6.9-47.5-53.2-30.2zm122-143.1l-4.6 212.6s60.3-9.2 64.2-27.3c3.9-18.1 0-193.6 0-193.6h-11l-42.2-7.3-6.4 15.6z"/><path class="st0" d="M395.2 296.4h-78.4v80.5l113.5 67.4v92.2h-22.7v-68.8l-17.2-17.9-85.3-45.6-18.6-41.1v-91.5h114.2z"/><path class="st0" d="M389 286.7v101.4l42.2 26.2V295.9h83v-24.3H384.9z"/><path class="st0" d="M498.4 290.7v181.6s6.9 42.4-68.1 45.4l-7.6 26.4s72.3-20.6 75.7-22c3.4-1.4 27.5-53.7 27.5-53.7l-5.5-177.7h-22zM282.6 446.4v-15.6l34.2 22.8s-14.2 66 68.1 64.1V456l28.2 6.9-10.3 78.9-67.4-13.1-41.3-44.3-11.5-38z"/></svg>