<svg id="Camada_1" xmlns="http://www.w3.org/2000/svg" viewBox="0 0 236.6 85.6"><style>.st0{fill:#1f0f3d}</style><path class="st0" d="M39.7 17.5c4.8 0 8.8-3.9 8.8-8.8 0-4.8-3.9-8.8-8.8-8.8-4.8 0-8.8 3.9-8.8 8.8s4 8.8 8.8 8.8zm0-13.2c2.5 0 4.5 2 4.5 4.5s-2 4.5-4.5 4.5-4.5-2-4.5-4.5 2-4.5 4.5-4.5zM17.6 17.5c4.8 0 8.8-3.9 8.8-8.8 0-4.8-3.9-8.8-8.8-8.8-4.8 0-8.8 3.9-8.8 8.8s4 8.8 8.8 8.8zm0-13.2c2.5 0 4.5 2 4.5 4.5s-2 4.5-4.5 4.5-4.5-2-4.5-4.5 2-4.5 4.5-4.5zM0 19.5v46.3c0 14.4 15.8 19.3 24.1 19.8h9.1c8.3-.5 24.1-5.4 24.1-19.8V19.5H0zm53 46.3c0 13.8-18.6 15.4-20 15.5h-8.7c-1.5-.1-20-1.8-20-15.5v-8.1l6.7 4.4S8.2 74.9 24.3 74.6V63.3l-19.9-12V23.8H53v42z"/><path class="st0" d="M33.1 74.7c14.6-.6 13.3-8.8 13.3-8.8V31.5H33.2v23l-8.2-5V31.6H11v15.7l22.1 13.1v14.3zm118.5-54.9h4.4c.2 0 .6.5.7.8.1 1 0 2 0 2.9v20.8c0 1-.2 1.4-1.3 1.3-1.3-.1-2.9.3-3.9-.2s-1.6-2-2.4-3c-3.3-4.5-6.6-9.1-9.9-13.6-.2-.3-.5-.7-1-.9v17.7h-5.1c0-.4-.1-.7-.1-1.1V21c0-1 .3-1.3 1.2-1.2 1.1.1 2.2.1 3.3 0 .7 0 1.2.3 1.6.8 3.8 5.3 7.7 10.5 11.6 15.7.2.3.5.6.9.8V19.8zm-23.9 21.3V45c0 .2-.4.5-.6.5H109c0-.5-.1-.9-.1-1.2V20.9c0-.9.2-1.2 1.2-1.2h16.4c1 0 1.3.3 1.2 1.3-.1.7-.1 1.5 0 2.2.1.8-.3 1-1 1h-11.3c-1.4 0-1.4 0-1.4 1.4v4.6h12.4c.8 0 1.2.2 1.1 1.1-.1 1.1.2 2.5-.3 3.1-.5.5-2 .2-3 .2h-8.9c-1 0-1.3.3-1.3 1.3.1 1.3.1 2.7 0 4 0 .9.3 1.2 1.2 1.2h12.5zm77.8-21.3h4.5c.2 0 .7.5.7.7 0 5.4.2 10.8-.1 16.2-.2 5.2-3.6 8.4-8.8 9.2-2.7.4-5.4.3-8-.6-4.2-1.4-6.3-4.6-6.5-8.9-.1-3.2-.1-6.4-.1-9.7v-6.1c0-.7.2-1 .9-.9 1 0 2.1.1 3.2 0 .9-.1 1.1.3 1.1 1.1v13.7c0 .9 0 1.8.3 2.7 1 3.8 4.5 4.9 7.8 4.2 3.3-.6 5-2.8 5-6.2.1-4.7 0-9.4 0-14v-1.4zM85.1 38.4c1.8 1.6 3.7 2.8 5.9 3.1 1.8.2 3.7.2 5.5-.2.9-.2 1.8-1.1 2.3-2 .7-1.4 0-2.8-1.7-3.4-2-.7-4-1.1-6-1.7-1-.3-2.1-.6-3.1-1-2.3-1-4.1-2.6-4.3-5.4-.3-2.8.8-4.9 3-6.6 1.9-1.4 4-2 6.3-2 3.5-.1 6.8.6 9.7 2.8.3.2.6.5 1 .8-.8 1.2-1.6 2.3-2.3 3.5-1.3-.7-2.3-1.4-3.5-1.9-2.2-.9-4.5-1.2-6.8-.4-.6.2-1.2.6-1.6 1.1-1.1 1.2-.8 2.9.7 3.5 1.7.7 3.6 1.1 5.4 1.6 1.3.4 2.7.7 4 1.3 2.8 1.2 4.6 3.2 4.6 6.4 0 3.3-1.4 5.8-4.4 7-5.7 2.3-11.1 1.6-16.2-1.9-.7-.5-.9-1-.4-1.8.7-.8 1.2-1.8 1.9-2.8zM181.9 23c-.8 1.2-1.6 2.3-2.4 3.5-.4-.3-.7-.5-1.1-.8-2.8-1.8-5.8-2.7-9.2-1.6-.6.2-1.1.6-1.5 1-1.2 1.2-.9 2.9.7 3.5 2.1.8 4.4 1.3 6.5 1.9 1 .3 2 .6 2.9 1 2.8 1.2 4.6 3.2 4.6 6.5s-1.5 5.6-4.3 6.9c-3.2 1.5-6.6 1.6-10.1.9-2.3-.5-4.5-1.4-6.3-2.9-.5-.4-.7-.8-.2-1.4.7-1 1.3-2 1.9-3.1 1.8 1.6 3.7 2.8 6 3.1 1.8.2 3.7.2 5.5-.2.9-.2 1.8-1.1 2.2-2 .7-1.5 0-2.8-1.7-3.4-2-.7-4-1.1-6-1.7-1-.3-2.1-.6-3.1-1-2.3-1-4.1-2.6-4.3-5.4-.3-2.8.9-4.9 3.1-6.6 1.9-1.4 4-1.9 6.3-2 3.6-.1 6.9.7 9.8 2.9.1.3.3.6.7.9zm35.7 15.4c1.7 1.5 3.6 2.8 5.8 3.1 1.8.2 3.7.1 5.5-.1.6 0 1.2-.5 1.6-1 1.4-1.4 1.2-3.5-.7-4.3-2-.8-4.2-1.3-6.3-1.9-1.1-.3-2.2-.6-3.2-1.1-2.3-1-4-2.7-4.3-5.4-.2-2.8.9-4.9 3.1-6.5 1.9-1.4 4-1.9 6.3-2 3.6-.1 7 .7 9.9 3 .6.5.8.9.2 1.5-.5.6-.9 1.2-1.2 1.8-.4.8-.8.9-1.6.3-2.3-1.7-5-2.5-7.9-2.1-1 .1-2 .6-2.8 1.2-1.4 1.2-1.1 3 .6 3.7 1.7.7 3.5 1.1 5.3 1.6 1.3.4 2.7.7 4 1.3 2.9 1.2 4.7 3.2 4.7 6.5s-1.5 5.7-4.5 6.9c-5.6 2.3-11 1.6-16.1-1.9-.8-.5-.9-1-.3-1.8.6-.8 1.1-1.6 1.6-2.5l.3-.3zM84.3 77.6V55.7c.3 0 .5-.1.8-.1h8.2c3.3 0 6.3 1 8.7 3.5 4.8 5 3.8 15.8-5.3 18-1.5.3-3 .5-4.5.5h-7.9zm4.2-11V73c0 .6.2.8.8.8h4.1c3.7-.1 6.2-2.2 6.8-5.9.6-3.7-1.3-8-6.2-8.4-1.5-.1-3.1 0-4.6-.1-.7 0-.9.2-.9.9.1 2.1 0 4.2 0 6.3zm100.3 2.7c1.8 2.7 3.7 5.4 5.6 8.2h-4.8c-.2 0-.5-.4-.7-.7-1.4-2.2-2.7-4.3-4.1-6.5-.3-.5-.7-.8-1.3-.8-.7.1-1.4 0-2.1 0-.7 0-.8.2-.8.9v6.3c0 .6-.2.9-.8.8h-3.4c0-.4-.1-.7-.1-1v-20c0-.8.2-1 1-1h9.5c2.9 0 5.3 1.1 6.7 3.8 1.5 3 .9 8.3-4 9.7-.2.1-.4.2-.7.3zm-4.9-3.5c0 .1 0 .1 0 0 1 0 2 0 3-.1 1.9-.3 2.8-1.5 2.8-3.3-.1-1.7-1.1-2.8-2.9-3-1.8-.1-3.7-.1-5.5 0-.2 0-.6.4-.6.7-.1 1.7 0 3.4 0 5.1 0 .5.2.7.7.7.7-.1 1.6-.1 2.5-.1zm-12.1.8c0 6.7-5 11.5-11.7 11.5-6.7 0-11.6-5-11.6-11.7 0-6.6 5-11.4 11.9-11.3 6.7 0 11.5 4.9 11.4 11.5zm-4.3.1c-.1-.8-.2-1.5-.4-2.3-.6-2.5-2-4.3-4.4-5.1-2.6-.8-5.1-.6-7.2 1.3-2.2 1.9-2.7 4.5-2.3 7.2.4 3.5 3.1 6.1 6.6 6.3 4.3.4 7.6-2.8 7.7-7.4zm-54.2-2.2h10c1.7 0 1.5-.1 1.5 1.5 0 2.3 0 2.3-2.3 2.3h-8.2c-.8 0-1 .2-1 1 .1 1.1.1 2.3 0 3.4-.1.9.3 1.1 1.2 1.1h10.4v3.7H109c0-.3-.1-.6-.1-1V56.6c0-.9.3-1.1 1.1-1.1h13.9c.9 0 1.2.3 1.1 1.1-.1.6 0 1.2 0 1.8.1.7-.2 1-.9 1h-9.5c-1.2 0-1.2 0-1.2 1.2-.1 1.2-.1 2.5-.1 3.9zm20.6 1c.8-.9 1.5-1.7 2.1-2.4l6-6.9c.3-.3.8-.6 1.2-.6 1.4-.1 2.8 0 4.5 0-.4.5-.6.7-.8 1-2.6 2.9-5.2 5.8-7.9 8.7-.5.6-.5.9 0 1.4l8.4 9.6c.3.3.6.7 1 1.2h-5.2c-.2 0-.5-.4-.7-.7l-6.3-7.5c-.2-.2-.4-.4-.7-.8-.9 1-2 1.6-1.9 3.2.1 1.7 0 3.3 0 5 0 .6-.2.9-.8.8h-3.4c0-.4-.1-.7-.1-1v-20c0-.7.2-1.1 1-1 .8.1 1.7 0 2.5 0 .7 0 .9.2.9.9v7.8c.2.4.2.7.2 1.3zm-18.5-14.8c0 1.3-1 2.4-2.2 2.4-1.3 0-2.4-1-2.4-2.4 0-1.3 1.1-2.3 2.4-2.3 1.2 0 2.2 1 2.2 2.3zm8.4 0c0 1.3-1 2.3-2.3 2.3-1.3 0-2.4-1.1-2.4-2.4 0-1.2 1.1-2.3 2.5-2.2 1.2 0 2.2 1 2.2 2.3z"/></svg>