<svg id="Camada_1" xmlns="http://www.w3.org/2000/svg" viewBox="0 0 120.6 180.3"><style>.st0{fill:#1f0f3d}</style><path class="st0" d="M83.5 36.9c10.2 0 18.5-8.3 18.5-18.5C102 8.3 93.7 0 83.5 0 73.4 0 65.1 8.3 65.1 18.5c0 10.1 8.3 18.4 18.4 18.4zm0-27.9c5.2 0 9.4 4.2 9.4 9.4s-4.2 9.4-9.4 9.4-9.4-4.2-9.4-9.4S78.3 9 83.5 9zM37.1 36.9c10.2 0 18.5-8.3 18.5-18.5C55.5 8.3 47.2 0 37.1 0 26.9 0 18.6 8.3 18.6 18.5c0 10.1 8.3 18.4 18.5 18.4zM37 9c5.2 0 9.4 4.2 9.4 9.4s-4.2 9.4-9.4 9.4-9.4-4.2-9.4-9.4c0-5.1 4.2-9.4 9.4-9.4zM0 41.1v97.5c0 30.4 33.2 40.5 50.7 41.7h19.1c17.5-1.1 50.7-11.3 50.7-41.7V41.1H0zm111.6 97.5c0 29-39.1 32.5-42.1 32.7H51.2c-3.1-.2-42.2-3.8-42.2-32.7v-10.7h.1v-6.3l14 9.4s-5.8 27 27.9 26.3v-23.9L9 108.2v-58h102.6v88.4z"/><path class="st0" d="M69.6 157.2c30.7-1.2 27.9-18.6 27.9-18.6V66.4H70v48.5l-17.3-10.7V66.6H23.1v33l46.5 27.6v30z"/></svg>