<svg id="Camada_1" xmlns="http://www.w3.org/2000/svg" viewBox="0 0 135.2 135.2"><style>.st0{fill:#1f0f3d;stroke:#231f20;stroke-width:.25;stroke-miterlimit:10}</style><path class="st0" d="M67.6 135C30.4 135 .1 104.7.1 67.5S30.4 0 67.6 0s67.5 30.3 67.5 67.5c-.1 37.3-30.3 67.5-67.5 67.5zm0-134C30.9 1 1 30.9 1 67.6s29.9 66.6 66.6 66.6c36.7 0 66.6-29.9 66.6-66.6S104.3 1 67.6 1z"/><path class="st0" d="M67.6 112.6c-24.8 0-45-20.2-45-45s20.2-45 45-45 45 20.2 45 45-20.2 45-45 45zm0-89.1c-24.3 0-44.1 19.8-44.1 44.1s19.8 44.1 44.1 44.1 44.1-19.8 44.1-44.1-19.8-44.1-44.1-44.1zm-47.7 22c-.5 1-1.3 1.8-2.3 2.1l-.4-1.2c.8-.3 1.4-.8 1.7-1.5.5-.9.3-1.4 0-1.5-.2-.1-.5-.1-1.1.6-.1.1-.7.8-.8.9-.8.9-1.6 1.5-2.5 1.1-.9-.4-1.2-1.7-.4-3.2.5-1 1.3-1.6 2.2-1.9l.4 1.2c-.6.2-1.2.6-1.5 1.2-.5.9-.3 1.4-.1 1.5.2.1.5-.1 1.2-.8.1-.1.6-.7.7-.8.9-1 1.8-1.3 2.5-.9.9.3 1.3 1.5.4 3.2zM23 40l-.7 1.1-5.2-3.4.7-1.1L23 40zm.7-9.2l-1.4 1.7h.1l3.8 3.1-.8 1-3.8-3.1-.1-.1-1.4 1.7-.9-.7 3.5-4.4 1 .8zm9-1.7L29 32.6l-4.3-4.5 3.7-3.5.8.8-2.9 2.7h.2l.8.8v.2l2.6-2.5.8.8-2.6 2.6h.2l.8.8v.2l2.9-2.7.7.8zm8.8-7.4c-.2 1-.7 1.8-1.6 2.3-1.9 1.1-3.5.6-4.5-.9-1-1.6-.7-3.4 1.1-4.5.9-.6 1.8-.7 2.8-.4l-.3 1.2c-.6-.3-1.2-.2-1.9.2-1.2.7-1.2 1.8-.6 2.8.6 1 1.5 1.4 2.7.6.6-.4 1-.9 1-1.6l1.3.3zm5.1-1.1c-1.9.8-3.4.1-4.2-1.6-.7-1.7-.3-3.4 1.7-4.2 1.9-.8 3.5 0 4.2 1.7.7 1.6.2 3.3-1.7 4.1zm-2.1-4.8c-1.2.5-1.4 1.5-.9 2.6.5 1.1 1.3 1.6 2.5 1.1s1.4-1.5.9-2.6c-.4-1-1.3-1.6-2.5-1.1zM57 17.2l-1.1.3-3.6-2.6-.6-.6 1 4-1.3.3-1.5-6 1.1-.3 3.6 2.6.6.6-1-4 1.3-.3 1.5 6zm7.9-2.1c-.6.8-1.4 1.3-2.5 1.4-2.2.2-3.4-.9-3.6-2.8-.2-1.8.8-3.3 3-3.5 1.1-.1 2 .1 2.7.8l-.8 1c-.5-.5-1-.7-1.8-.6-1.4.1-1.9 1.1-1.8 2.3.1 1.1.8 1.9 2.2 1.8.7-.1 1.3-.4 1.6-1l1 .6zm7.2 1.2l-5.1-.2.2-6.2 5.1.2v1.2l-4-.1.1.1v1.1l-.1.1 3.6.1v1.2l-3.6-.1.1.1v1.1l-.2.1 4 .1-.1 1.2zm5.5.8l-3.1-.6 1.1-6.1 3.1.5c1.4.3 2 1.2 1.8 2.1-.1.5-.3.9-.8 1.1.5.3.7.8.6 1.5-.3 1.2-1.3 1.8-2.7 1.5zm.4-2.6l-2-.4.1.1-.2 1.2-.1.1 2 .4c.8.1 1.1-.1 1.2-.5 0-.4-.2-.7-1-.9zm.3-2.4l-1.8-.3.1.1-.2 1.1-.1.1 1.8.3c.7.1 1-.1 1-.5.1-.4-.1-.6-.8-.8zm4.9 6.4l-1.2-.3 1.7-6 1.2.4-1.7 5.9zm4.9 1.8l-2.5-1 2.4-5.7 2.4 1c2.5 1 2.2 2.8 1.7 4.1-.5 1.2-1.6 2.6-4 1.6zm1.8-4.7l-1.2-.6.1.2-1.4 3.4-.2.1 1.3.5c1.5.6 2 0 2.5-1.1.4-1 .4-1.9-1.1-2.5zm5.4 8.4c-1.8-1.1-2.1-2.8-1.1-4.3 1-1.6 2.6-2.2 4.4-1.1 1.8 1.1 2 2.8 1.1 4.4-1 1.6-2.6 2.1-4.4 1zm2.7-4.4c-1.1-.7-2-.2-2.7.8-.6 1-.6 2 .6 2.7 1.1.7 2 .3 2.6-.7.7-1.1.7-2.1-.5-2.8zm8.3 10.1l-1.4-1.3v.2l-1.4 1.5-.9-.9 4.3-4.5 2.3 2.1c1.1 1 1.1 2.2.3 3.1-.9.8-2.1.8-3.2-.2zm2-2.1l-1.4-1.3v.2l-1 1.1h-.2l1.4 1.3c.5.5 1 .4 1.3.1.4-.4.4-.9-.1-1.4zm1.4 9.2c-1.3-1.6-1-3.3.5-4.5 1.5-1.1 3.2-1.1 4.5.5 1.3 1.7.9 3.4-.6 4.5-1.4 1.2-3.1 1.1-4.4-.5zm4.1-3.2c-.8-1-1.8-.9-2.8-.2-.9.7-1.2 1.7-.4 2.7.8 1 1.8 1 2.7.3.9-.8 1.3-1.8.5-2.8zm2.1 12.7l-.7-1.3 1-1.5c.3-.5.3-.9 0-1.5l-.6-1.1v.2l-1.9 1.1-.6-1.1 5.4-3.1 1.5 2.6c.6 1.1.6 2.4-.5 3-.6.3-1.3.2-1.8-.2 0 .2-.1.6-.3.9l-1.5 2zm2.8-5.1l-.9-1.6v.2l-1.2.7h-.2l.9 1.5c.4.7.9.8 1.2.6.5-.4.6-.8.2-1.4z"/><g id="XMLID_54_"><path class="st0" d="M78.4 93.8L66.5 83.1 54.7 93.8l-.8-.4c-6.8-3.1-10-7.9-11.4-11.4-1.6-3.8-1.5-6.9-1.5-7v-.6l2.8-2.5-4.2-3.8-.1-.2c-4.1-8.1-2.4-14.5-.2-18.5 2.3-4.2 5.6-6.6 5.8-6.7l.9-.6 10.2 9.2 10.3-9.2 10.3 9.2L87 42.1l.9.6c.1.1 3.4 2.4 5.8 6.7 2.2 4 3.9 10.4-.2 18.5l-.1.2-4.2 3.8 2.8 2.5v.6c0 .1.1 3.2-1.5 7-1.4 3.5-4.6 8.3-11.4 11.4l-.7.4zM43.8 75.6c.1 1 .3 3 1.3 5.4 1.7 4.1 4.8 7.2 9.1 9.4l12.3-11.1 12.3 11.1c9.1-4.5 10.3-12.6 10.4-14.8l-4.1-3.8 6.1-5.5c2.7-5.5 2.8-10.7.2-15.5-1.3-2.5-3.1-4.2-4.1-5.1l-10.4 9.4-10.3-9.2-10.3 9.2-10.4-9.4c-1 .9-2.8 2.6-4.1 5.1-2.6 4.8-2.6 10 .2 15.5l6.1 5.5-4.3 3.8zM79.1 85l-10.4-9.1V68l18.4-16.6.9 1c.1.1 1.3 1.5 1.7 3.6.4 2 .3 5.1-2.6 8.4l-.1.1-8 7.4 4.5 4.1.1.4c0 .2.8 3.9-3.6 7.8l-.9.8zm-7.6-10.3l7.5 6.6c1.6-1.8 1.8-3.2 1.9-3.9l-6.1-5.5 10.3-9.3c1.7-2 2.3-3.9 2-5.9-.1-.5-.2-.9-.4-1.2L71.5 69.2v5.5zM54 85l-.9-.8c-4.4-4-3.6-7.7-3.6-7.8l.1-.4 4.5-4.1-8.1-7.4c-2.9-3.4-3-6.4-2.6-8.4.4-2.1 1.6-3.5 1.7-3.6l.9-1L64.4 68v8L54 85zm-1.8-7.7c0 .7.3 2.1 1.9 3.9l7.5-6.6v-5.5L46.4 55.5c-.1.3-.3.7-.4 1.2-.4 1.9.3 3.9 2 5.9l10.3 9.3-6.1 5.4zm14.3-12.9l-7.2-6.5 7.2-6.4 7.2 6.4-7.2 6.5zm-3-6.5l3.1 2.7 3.1-2.7-3.1-2.7-3.1 2.7z" id="XMLID_55_"/></g><circle class="st0" cx="123.2" cy="67.6" r="2.8"/><circle class="st0" cx="12" cy="68.7" r="2.8"/><path class="st0" d="M10.3 84.7l-.6-1 4.7-2.9.6 1-4.7 2.9zm2.5 7l-.4-.9 1.9-3.5.4-.6-3.4 1.4-.4-1.1 5.1-2.1.4.9-1.9 3.5-.4.6 3.4-1.4.4 1.1-5.1 2.1zm3.8 6.9l-.5-.9 1.4-3.7.4-.7-3.2 1.8-.6-1 4.8-2.8.5.9L18 96l-.4.6 3.2-1.8.6 1-4.8 2.8zm3.1 4.5c-1.1-1.5-.8-3 .5-4s2.9-1 4 .5c1.2 1.5.8 3-.5 4-1.4 1-2.9.9-4-.5zm3.7-2.9c-.7-.9-1.6-.9-2.5-.2-.8.6-1.1 1.5-.4 2.4.7.9 1.6.9 2.4.3.9-.6 1.2-1.5.5-2.5zm4 11.2l-.8-.8 2.2-2.3-.6.2-3 .8.8-3 .2-.6L24 108l-.8-.8 3.9-4 .7.7-.9 3.4-.2.6.6-.3 3.4-.9.7.7-4 4zm3.1 2.5l-.9-.7 3.5-4.4.9.7-3.5 4.4zm6.4 4.4l-.8-.5-.4-3.9v-.8l-2 3.1-1-.6 3-4.7.8.5.5 4v.7l2-3.1 1 .6-3.1 4.7zm7.7 3.9l-1.2-.6v-1.4l.1-.1L41 119v.1l-1 .9-1.2-.6 4.8-3.9.9.4.1 6.3zm-1.1-3.1l-.1-.1v-1.3l.1-.5-.4.4-1 .8h-.2l1.6.7zm8.4.9l-1.9-.6v.1l-1.4 4.2-1.1-.4 1.4-4.2.1-.1-1.9-.6.3-1 4.8 1.6-.3 1zm6.3 3.4c-.3 1.6-1.4 2.4-3.1 2-1.7-.4-2.4-1.5-2-3.1l.6-2.9 1.1.2-.6 2.9c-.2 1 0 1.6 1.1 1.9 1 .2 1.5-.2 1.8-1.3l.6-2.9 1.1.2-.6 3zm8.2 3.4l-1.2-.1.2-3.2-.3.6-1.7 2.6-1.4-2.8-.2-.6-.2 3.2-1.2-.1.4-5.6 1 .1 1.6 3.2.2.6.3-.6 2-2.9 1 .1-.5 5.5zm11.2-1.8c-.5.7-1.3 1.2-2.2 1.3-1.9.2-3.1-.8-3.3-2.4-.2-1.6.7-3 2.6-3.2 1-.1 1.8.1 2.4.7l-.7.9c-.4-.4-.9-.6-1.6-.6-1.3.2-1.7 1-1.6 2 .1 1 .7 1.7 2 1.5.7-.1 1.2-.4 1.5-.9l.9.7zm5-.1c-1.8.5-3.1-.4-3.5-2-.4-1.6.3-3 2.1-3.5s3.1.5 3.5 2.1c.4 1.6-.3 3-2.1 3.4zm-1.2-4.5c-1.1.3-1.4 1.2-1.2 2.2.3 1 .9 1.6 2.1 1.3 1.2-.3 1.4-1.1 1.2-2.1-.3-1-.9-1.7-2.1-1.4zm11.1 1.1l-.9.4-3.5-1.9-.6-.5 1.4 3.5-1.1.4-2-5.2.9-.4 3.5 1.9.6.4-1.4-3.4 1.1-.4 2 5.2zm4.6-2.3c-.9.5-1.9.7-2.8.4l.3-1.1c.7.2 1.4.1 2-.2.8-.4 1-.9.8-1.1-.1-.2-.4-.3-1.1-.1-.1 0-.9.2-1 .3-1 .3-1.9.4-2.4-.5-.4-.8 0-1.8 1.4-2.6.9-.5 1.8-.6 2.6-.3l-.3 1.1c-.6-.2-1.2-.2-1.8.1-.8.4-.9.8-.8 1.1.1.2.4.2 1.3 0 .1 0 .8-.2.9-.2 1.2-.3 2-.1 2.3.6.4.6.1 1.7-1.4 2.5zm6.9-7.7c1 1.3.9 2.6-.6 3.7-1.4 1.1-2.7.8-3.7-.6l-1.8-2.4.9-.7 1.8 2.4c.6.8 1.2 1.1 2.1.4.9-.6.9-1.3.2-2.1l-1.8-2.4.9-.7 2 2.4zm6.7-2.6l-3.1 2.9-3.8-4.1.9-.8 3 3.2v.1l2.4-2.2.6.9zm.7-7.5l-1.3 1.5h.1l3.3 2.9-.8.9-3.3-2.9v-.1l-1.3 1.5-.8-.7 3.3-3.8.8.7zm6.3-.9c-1.1 1.5-2.6 1.7-3.9.8-1.4-.9-1.8-2.5-.7-4 1.1-1.6 2.6-1.7 4-.7 1.3.9 1.6 2.4.6 3.9zm-3.8-2.6c-.7 1-.3 1.8.6 2.4.9.6 1.7.6 2.4-.4s.3-1.8-.5-2.4c-.9-.6-1.9-.6-2.5.4zm9.1-6.8l-.6 1.2h-1.7c-.5 0-.8.2-1.1.8l-.5 1 .1-.1 1.8.9-.5 1-4.9-2.5 1.2-2.4c.5-1 1.5-1.6 2.5-1.1.5.3.8.9.8 1.5.2-.1.4-.2.8-.2l2.1-.1zm-5.3.4L117 93l.1-.1 1.1.6v.1l.7-1.4c.3-.6.2-1.1-.2-1.2-.3-.3-.7-.1-1 .5zm6.5-3.5l-.4 1.1-5.2-2.1.4-1.1 5.2 2.1zm2.6-8.1l-.4 1.2-1.3.2-.1-.1-.8 2.7h.1l1 .9-.3 1.2-4.6-4.1.3-1 6.1-1zm-2.8 1.5l-.1.1-1.3.2h-.5l.4.3 1 .9.1.1.4-1.6z"/></svg>