<?xml version="1.0" encoding="utf-8"?>
<!-- Generator: Adobe Illustrator 21.0.0, SVG Export Plug-In . SVG Version: 6.00 Build 0)  -->
<svg version="1.1" id="Camada_1" xmlns="http://www.w3.org/2000/svg" xmlns:xlink="http://www.w3.org/1999/xlink" x="0px" y="0px"
	 viewBox="0 0 159 159" style="enable-background:new 0 0 159 159;" xml:space="preserve">
<style type="text/css">
	.st0{fill:#FFFFFF;}
	.st1{fill:#1F0F3D;}
</style>
<g>
	<path class="st0" d="M79.5,159L79.5,159C35.6,159,0,123.4,0,79.5v0C0,35.6,35.6,0,79.5,0h0C123.4,0,159,35.6,159,79.5v0
		C159,123.4,123.4,159,79.5,159z"/>
	<g>
		<g>
			<g>
				<path class="st1" d="M44.5,115.4c1.2-3.5,2.3-6.9,3.5-10.2c0.9-2.6,1.8-5.1,2.6-7.7c0.1-0.3,0.1-0.7-0.1-0.9
					c-1.9-3.2-3.3-6.6-4-10.3c-2.3-12.4,1-23.1,10-31.9c5.7-5.5,12.6-8.7,20.5-9.3c13.1-1.1,23.8,3.7,31.7,14.3
					c3.8,5.1,5.9,10.9,6.3,17.3c0.7,13.6-4.7,24.2-16,31.6c-6.7,4.4-14.2,6-22.3,5.2c-4.4-0.5-8.6-1.7-12.5-3.8
					c-0.4-0.2-0.7-0.2-1-0.1c-6,1.9-12,3.8-18,5.7C44.9,115.3,44.7,115.3,44.5,115.4z M53.2,106.9c0.3-0.1,0.5-0.1,0.7-0.2
					c3.3-1.1,6.6-2.1,10-3.2c0.4-0.1,0.7-0.1,1.1,0.1c3.4,2.2,7.2,3.6,11.2,4.1c8.1,1.1,15.4-0.7,21.9-5.6c3.5-2.6,6.2-5.9,8.3-9.7
					c2.8-5.3,3.8-11,3-17c-1-7.6-4.6-13.8-10.4-18.7c-4.6-3.8-9.8-5.9-15.8-6.5c-6.2-0.5-12.1,0.7-17.5,3.9
					c-3.8,2.2-6.9,5.1-9.4,8.7c-2.4,3.5-3.9,7.3-4.6,11.5c-0.5,3.2-0.5,6.3,0,9.5c0.7,4.3,2.3,8.2,4.9,11.7c0.2,0.3,0.3,0.6,0.1,0.9
					c-0.6,1.8-1.2,3.5-1.8,5.3C54.3,103.5,53.8,105.2,53.2,106.9z"/>
			</g>
			<g>
				<path class="st1" d="M69.6,63.6c0.1,0,0.2,0,0.3,0c1.3-0.2,2,0.5,2.5,1.7c0.8,1.9,1.5,3.8,2.4,5.7c0.5,1,0.3,1.9-0.3,2.7
					c-0.5,0.7-1.1,1.4-1.7,2.1c-0.6,0.6-0.6,1-0.2,1.8c1.8,3,4.1,5.7,7.1,7.6c1.4,0.9,3,1.6,4.5,2.3c0.8,0.4,1.3,0.3,1.9-0.5
					c0.8-1,1.6-1.9,2.4-2.9c0.7-0.9,1.1-1,2.1-0.6c2.3,1,4.5,2.1,6.7,3.2c0.5,0.3,0.7,0.7,0.7,1.3c-0.2,3.5-1.1,5.1-4.9,6.8
					c-1.8,0.8-3.7,1-5.6,0.3c-2.6-0.9-5.3-1.8-7.8-2.9c-2.9-1.3-5.3-3.3-7.5-5.6c-3-3-5.6-6.3-7.4-10.2c-1.3-2.7-1.6-5.5-0.5-8.4
					c0.6-1.6,1.6-2.8,2.8-3.9C67.7,63.5,68.7,63.5,69.6,63.6z"/>
			</g>
		</g>
	</g>
</g>
</svg>
