<?xml version="1.0" encoding="utf-8"?>
<!-- Generator: Adobe Illustrator 21.0.0, SVG Export Plug-In . SVG Version: 6.00 Build 0)  -->
<svg version="1.1" id="Camada_1" xmlns="http://www.w3.org/2000/svg" xmlns:xlink="http://www.w3.org/1999/xlink" x="0px" y="0px"
	 viewBox="0 0 42.9 34.8" style="enable-background:new 0 0 42.9 34.8;" xml:space="preserve">
<style type="text/css">
	.st0{stroke:#1F0F3D;stroke-width:3;stroke-miterlimit:10;}
</style>
<g>
	<g>
		<g>
			<path class="st0" d="M33.1,33.3H9.8c-4.6,0-8.3-4.2-8.3-9.3V10.8c0-5.1,3.7-9.3,8.3-9.3h23.3c4.6,0,8.3,4.2,8.3,9.3V24
				C41.4,29.1,37.6,33.3,33.1,33.3z M9.8,4.5c-3.1,0-5.6,2.8-5.6,6.3V24c0,3.5,2.5,6.3,5.6,6.3h23.3c3.1,0,5.6-2.8,5.6-6.3V10.8
				c0-3.5-2.5-6.3-5.6-6.3H9.8z"/>
		</g>
		<g>
			<path class="st0" d="M21.4,20.2c-1.4,0-2.9-0.5-4.1-1.4l-0.2-0.1L4.2,5.6L6,3.4l12.8,13c1.5,1.1,3.5,1.1,5,0.1L37.3,3.9L39,6.2
				L25.4,18.9C24.2,19.8,22.8,20.2,21.4,20.2z"/>
		</g>
	</g>
</g>
</svg>
