<?xml version="1.0" encoding="utf-8"?>
<!-- Generator: Adobe Illustrator 21.0.0, SVG Export Plug-In . SVG Version: 6.00 Build 0)  -->
<svg version="1.1" id="Camada_1" xmlns="http://www.w3.org/2000/svg" xmlns:xlink="http://www.w3.org/1999/xlink" x="0px" y="0px"
	 viewBox="0 0 23.6 45.1" style="enable-background:new 0 0 23.6 45.1;" xml:space="preserve">
<style type="text/css">
	.st0{fill:#1F0F3D;}
</style>
<path id="XMLID_64_" class="st0" d="M0,24.7c0-2.7,0-5.4,0-8h0.1c2.3,0,4.6,0,6.8,0c0.1,0,0.1-0.1,0.1-0.1c0-1.9,0-3.9,0-5.8
	C7,10.1,7,9.4,7.1,8.8C7.2,8,7.4,7.3,7.6,6.5c0.5-1.6,1.4-3,2.7-4.2c0.7-0.5,1.4-1,2.2-1.4c0.9-0.4,1.9-0.7,2.9-0.8
	c0.3-0.1,0.7-0.1,1-0.1c0,0,0.1,0,0.1-0.1c0.2,0,0.3,0,0.4,0c0,0.1,0.1,0,0.1,0c0.4,0,0.7,0,1.1,0c0.1,0,0.1,0,0.1,0
	c0.2,0,0.4,0,0.6,0l0,0l0,0C19,0,19,0,19.1,0c0.6,0,1.3,0.1,1.9,0.1c0.5,0.1,1,0.1,1.5,0.1c0.4,0.1,0.8,0.1,1.2,0.1
	c0,2.4,0,4.8,0,7.2c-1.3,0-2.6,0-3.9,0c-0.4,0-0.7,0-1.1,0.1c-0.5,0.1-1,0.1-1.4,0.3c-0.7,0.3-1.3,0.8-1.5,1.5
	c-0.2,0.6-0.3,1.2-0.3,1.8c0,1.8,0,3.5,0,5.2c0,0.1,0,0.1,0.1,0.1c1.1,0,2.3,0,3.4,0c1.5,0,2.9,0,4.4,0c0.1,0,0.1,0,0.1,0.1
	c-0.1,0.4-0.1,0.8-0.2,1.2c-0.1,0.4-0.1,0.9-0.2,1.3c-0.1,0.4-0.1,0.9-0.2,1.3c-0.1,0.4-0.1,0.9-0.2,1.3c-0.1,0.4-0.1,0.9-0.2,1.3
	c-0.1,0.4-0.1,0.9-0.2,1.3c0,0.1,0,0.1-0.2,0.1c-2.2,0-4.5,0-6.7,0h-0.1c-0.1,0-0.1,0-0.1,0.1c0,0.1,0,0.1,0,0.1
	c0,6.8,0,13.6,0,20.3c0,0.1,0,0.1,0,0.1c-0.8,0-1.7,0-2.5,0c-1.9,0-3.8,0-5.8,0c0-0.1,0-0.1,0-0.1c0-6.8,0-13.6,0-20.4
	c0-0.1,0-0.1-0.1-0.1c-2.3,0-4.5,0-6.7,0C0.1,24.7,0.1,24.7,0,24.7z"/>
</svg>
