<?xml version="1.0" encoding="utf-8"?>
<!-- Generator: Adobe Illustrator 21.0.0, SVG Export Plug-In . SVG Version: 6.00 Build 0)  -->
<svg version="1.1" id="Camada_1" xmlns="http://www.w3.org/2000/svg" xmlns:xlink="http://www.w3.org/1999/xlink" x="0px" y="0px"
	 viewBox="0 0 88.6 88.6" style="enable-background:new 0 0 88.6 88.6;" xml:space="preserve">
<style type="text/css">
	.st0{fill:none;stroke:#1F0F3D;stroke-width:4;stroke-miterlimit:10;}
	.st1{fill:none;stroke:#1F0F3D;stroke-width:2;stroke-miterlimit:10;}
</style>
<g>
	<circle class="st0" cx="44.3" cy="44.3" r="42.3"/>
	<g>
		<polyline class="st0" points="52,87 52,44.3 66.9,44.3 66.9,33 52,33 49.9,26 49.9,20.3 44.3,14.7 		"/>
		<polyline class="st0" points="66.9,40.8 75.3,40.8 73.9,34.4 66.9,34.4 		"/>
	</g>
	<g>
		<polyline class="st0" points="36.5,87 36.5,44.3 21.7,44.3 21.7,33 36.5,33 38.7,26 38.7,20.3 44.3,14.7 44.3,14.7 44.3,14.7 
			44.3,14.7 45.1,15.5 		"/>
		<polyline class="st0" points="21.7,40.8 13.3,40.8 14.7,34.4 21.7,34.4 		"/>
	</g>
	<line class="st1" x1="41.5" y1="82.4" x2="41.5" y2="43.6"/>
	<line class="st1" x1="46.4" y1="82.4" x2="46.4" y2="43.6"/>
</g>
</svg>
