<?xml version="1.0" encoding="utf-8"?>
<!-- Generator: Adobe Illustrator 21.0.0, SVG Export Plug-In . SVG Version: 6.00 Build 0)  -->
<svg version="1.1" id="Camada_1" xmlns="http://www.w3.org/2000/svg" xmlns:xlink="http://www.w3.org/1999/xlink" x="0px" y="0px"
	 viewBox="0 0 36.8 39.1" style="enable-background:new 0 0 36.8 39.1;" xml:space="preserve">
<style type="text/css">
	.st0{fill:none;stroke:#1F0F3D;stroke-width:5;stroke-miterlimit:10;}
</style>
<path class="st0" d="M24.7,36.6c-1.5,0-2.9-0.3-4.4-0.8c-1.3-0.5-2.6-1.1-3.8-1.9c-1.4-0.9-2.7-2-3.9-3.1c-1.3-1.2-2.5-2.5-3.7-3.9
	c-1.3-1.6-2.6-3.3-3.6-5c-0.8-1.4-1.5-2.8-2-4.3c-0.4-1-0.6-2.1-0.7-3.2C2.4,12.7,2.5,11.1,3,9.6c0.4-1.2,0.9-2.4,1.7-3.4
	c0.5-0.7,1.2-1.3,1.9-1.9C7,4,7.3,3.6,7.7,3.3C8,3,8.3,2.8,8.7,2.7c0.6-0.3,1.3-0.2,1.8,0.1c0.6,0.3,1.1,0.8,1.5,1.4
	c0.6,0.7,1,1.5,1.5,2.3c0.4,0.6,0.7,1.1,1,1.7c0.3,0.6,0.5,1.2,0.6,1.9c0.1,0.9-0.1,1.8-0.8,2.5c-0.4,0.4-0.8,0.7-1.2,1.1
	c-0.4,0.4-0.8,0.6-1.2,1c-0.5,0.4-0.9,0.8-1.1,1.5c-0.1,0.5-0.1,1,0,1.6c0.2,0.7,0.5,1.4,0.8,2c0.6,1.1,1.4,2.1,2.2,3.1
	c0.8,0.9,1.6,1.8,2.4,2.6c0.8,0.7,1.6,1.4,2.6,2c0.5,0.3,1.1,0.5,1.7,0.5c0.7,0,1.3-0.2,1.8-0.6c0.1-0.1,0.2-0.2,0.3-0.3
	c0.5-0.5,1-1,1.5-1.4c0.3-0.3,0.6-0.5,0.9-0.7c0.8-0.5,1.7-0.5,2.6-0.3c0.7,0.2,1.4,0.6,2,1.1c0.7,0.6,1.4,1.2,2.2,1.8
	c0.5,0.4,1,0.9,1.4,1.4c0.3,0.4,0.6,0.8,0.7,1.2c0.3,0.8,0.1,1.5-0.4,2.1c-0.2,0.3-0.5,0.5-0.8,0.8c-0.5,0.4-1,0.9-1.5,1.3
	c-1,0.9-2.2,1.5-3.5,1.9C27,36.5,25.9,36.6,24.7,36.6z"/>
</svg>
