<?xml version="1.0" encoding="utf-8"?>
<!-- Generator: Adobe Illustrator 21.0.0, SVG Export Plug-In . SVG Version: 6.00 Build 0)  -->
<svg version="1.1" id="Camada_1" xmlns="http://www.w3.org/2000/svg" xmlns:xlink="http://www.w3.org/1999/xlink" x="0px" y="0px"
	 viewBox="0 0 46 46" style="enable-background:new 0 0 46 46;" xml:space="preserve">
<style type="text/css">
	.st0{fill:#1F0F3D;}
	.st1{fill:#FFF;}
</style>
<g>
	<g id="XMLID_14_">
		<g id="XMLID_15_">
			<path class="st1" d="M28.1,34.2L23,29.6l-5.1,4.6L17.5,34c-2.9-1.3-4.3-3.4-4.9-4.9c-0.7-1.6-0.6-3-0.6-3l0-0.3l1.2-1.1l-1.8-1.6
				L11.3,23c-1.8-3.5-1-6.3-0.1-8c1-1.8,2.4-2.8,2.5-2.9l0.4-0.3l4.4,4l4.5-4l4.5,4l4.4-4l0.4,0.3c0.1,0,1.5,1,2.5,2.9
				c0.9,1.7,1.7,4.5-0.1,8l-0.1,0.1l-1.8,1.6l1.2,1.1l0,0.3c0,0.1,0,1.4-0.6,3c-0.6,1.5-2,3.6-4.9,4.9L28.1,34.2z M13.2,26.3
				c0,0.4,0.1,1.3,0.6,2.3c0.7,1.8,2.1,3.1,3.9,4.1l5.3-4.8l5.3,4.8c3.9-2,4.4-5.5,4.5-6.4L31,24.7l2.6-2.4c1.2-2.4,1.2-4.6,0.1-6.7
				c-0.6-1.1-1.3-1.8-1.8-2.2l-4.5,4.1l-4.5-4l-4.5,4L14,13.4c-0.4,0.4-1.2,1.1-1.8,2.2c-1.1,2.1-1.1,4.3,0.1,6.7l2.6,2.4L13.2,26.3
				z M28.4,30.4l-4.5-3.9l0-1V23l8-7.2l0.4,0.5c0.1,0.1,0.5,0.6,0.7,1.6c0.2,0.9,0.1,2.2-1.1,3.6l0,0l-3.5,3.2l2,1.8l0,0.2
				c0,0.1,0.4,1.7-1.5,3.4L28.4,30.4z M25.2,25.9l3.2,2.8c0.7-0.8,0.8-1.4,0.8-1.7l-2.6-2.4l4.4-4c0.7-0.8,1-1.7,0.9-2.5
				c0-0.2-0.1-0.4-0.2-0.5l-6.6,5.9v1.9L25.2,25.9z M17.6,30.4L17.2,30c-1.9-1.7-1.6-3.3-1.5-3.4l0-0.2l2-1.8l-3.5-3.2l0,0
				c-1.3-1.5-1.3-2.8-1.1-3.6c0.2-0.9,0.7-1.5,0.7-1.6l0.4-0.5l8,7.2v2.4l0,1L17.6,30.4z M16.8,27.1c0,0.3,0.1,0.9,0.8,1.7l3.2-2.8
				l0-0.5v-1.9l-6.6-5.9c-0.1,0.1-0.1,0.3-0.2,0.5C14,19,14.3,19.8,15,20.7l4.4,4L16.8,27.1z M23,21.5l-3.1-2.8l3.1-2.8l3.1,2.8
				L23,21.5z M21.7,18.7l1.3,1.2l1.3-1.2L23,17.5L21.7,18.7z"/>
		</g>
	</g>
</g>
</svg>
