<?xml version="1.0" encoding="utf-8"?>
<!-- Generator: Adobe Illustrator 21.0.0, SVG Export Plug-In . SVG Version: 6.00 Build 0)  -->
<svg version="1.1" id="Camada_1" xmlns="http://www.w3.org/2000/svg" xmlns:xlink="http://www.w3.org/1999/xlink" x="0px" y="0px"
	 viewBox="0 0 932.3 712" style="enable-background:new 0 0 932.3 712;" xml:space="preserve">
<style type="text/css">
	.st0{fill:#1F0F3D;}
	.st1{fill:#110821;}
</style>
<rect class="st0" width="932.3" height="712"/>
<g>
	<g>
		<g>
			<path class="st1" d="M464.4,224c-24.9,0-45.1-20.2-45.1-45.1c0-24.9,20.2-45.1,45.1-45.1c24.8,0,45.1,20.2,45.1,45.1
				C509.4,203.8,489.2,224,464.4,224z M464.4,155.9c-12.7,0-23.1,10.3-23.1,23.1s10.3,23,23.1,23c12.7,0,23-10.3,23-23
				S477.1,155.9,464.4,155.9z"/>
		</g>
		<g>
			<path class="st1" d="M350.8,224c-24.9,0-45.1-20.2-45.1-45.1c0-24.9,20.2-45.1,45.1-45.1h0c24.8,0,45.1,20.2,45.1,45.1
				C395.9,203.8,375.7,224,350.8,224z M350.8,155.9c-12.7,0-23.1,10.3-23.1,23.1c0,12.7,10.3,23.1,23.1,23.1
				c12.7,0,23.1-10.3,23.1-23C373.9,166.2,363.5,155.9,350.8,155.9L350.8,155.9z"/>
		</g>
		<g>
			<path class="st1" d="M430.7,574.1l-46.5,0c-42.8-2.8-123.8-27.7-123.8-101.8V234.3h294.5v238.1c0,74.1-81,99-123.8,101.8
				L430.7,574.1z M385.3,552.1h44.6c7.5-0.6,102.9-9.1,102.9-79.8v-216H282.4V398l113.5,68.1v62.7h-11c-78.2,0-79.1-55.9-79.1-56.4
				v-12.4l-23.4-13.8v26.2C282.4,543,377.7,551.6,385.3,552.1z M327.8,450.9v21.4c0.1,3.2,2.1,30.1,46.1,33.9v-27.7L327.8,450.9z
				 M430.3,528.7h-11v-72.9l-113.5-68.1V279.7h90.1v111.2l23.4,15.5V279.7h90.1v192.6C509.4,472.9,508.5,528.7,430.3,528.7z
				 M441.3,443.4v62.9c44-3.9,46-30.8,46.1-34.1V301.7h-46.1V443.4z M327.8,375.3l49.6,29.8l-3.5-2.3v-101h-46.1V375.3z"/>
		</g>
	</g>
	<g>
		<polygon class="st1" points="384.9,396.8 384.9,284.9 316.8,284.9 316.8,386.7 384.9,422.4 		"/>
	</g>
	<g>
		<polygon class="st1" points="312.9,448.2 323.9,499.6 384.9,517.7 378,470.2 324.8,440 		"/>
	</g>
	<g>
		<path class="st1" d="M434.9,305.1l-4.6,212.6c0,0,60.3-9.2,64.2-27.3c3.9-18.1,0-193.6,0-193.6h-11l-42.2-7.3L434.9,305.1z"/>
	</g>
	<g>
		<polygon class="st0" points="395.2,296.4 316.8,296.4 316.8,376.9 430.3,444.3 430.3,536.5 407.6,536.5 407.6,467.7 390.4,449.8 
			305.1,404.2 286.5,363.1 286.5,271.6 384.9,271.6 400.7,271.6 		"/>
	</g>
	<g>
		<polygon class="st0" points="389,286.7 389,388.1 431.2,414.3 431.2,295.9 514.2,295.9 514.2,271.6 384.9,271.6 		"/>
	</g>
	<g>
		<path class="st0" d="M498.4,290.7v181.6c0,0,6.9,42.4-68.1,45.4l-7.6,26.4c0,0,72.3-20.6,75.7-22c3.4-1.4,27.5-53.7,27.5-53.7
			l-5.5-177.7H498.4z"/>
	</g>
	<g>
		<path class="st0" d="M282.6,446.4v-15.6l34.2,22.8c0,0-14.2,66,68.1,64.1V456l28.2,6.9l-10.3,78.9l-67.4-13.1l-41.3-44.3
			L282.6,446.4z"/>
	</g>
</g>
</svg>
