<?xml version="1.0" encoding="utf-8"?>
<!-- Generator: Adobe Illustrator 21.0.0, SVG Export Plug-In . SVG Version: 6.00 Build 0)  -->
<svg version="1.1" id="Camada_1" xmlns="http://www.w3.org/2000/svg" xmlns:xlink="http://www.w3.org/1999/xlink" x="0px" y="0px"
	 viewBox="0 0 120.6 180.3" style="enable-background:new 0 0 120.6 180.3;" xml:space="preserve">
<style type="text/css">
	.st0{fill:#1F0F3D;}
</style>
<g>
	<path class="st0" d="M83.5,36.9c10.2,0,18.5-8.3,18.5-18.5C102,8.3,93.7,0,83.5,0C73.4,0,65.1,8.3,65.1,18.5
		C65.1,28.6,73.4,36.9,83.5,36.9z M83.5,9c5.2,0,9.4,4.2,9.4,9.4s-4.2,9.4-9.4,9.4s-9.4-4.2-9.4-9.4S78.3,9,83.5,9z"/>
	<path class="st0" d="M37.1,36.9c10.2,0,18.5-8.3,18.5-18.5C55.5,8.3,47.2,0,37.1,0h0C26.9,0,18.6,8.3,18.6,18.5
		C18.6,28.6,26.9,36.9,37.1,36.9z M37,9L37,9c5.2,0,9.4,4.2,9.4,9.4c0,5.2-4.2,9.4-9.4,9.4c-5.2,0-9.4-4.2-9.4-9.4
		C27.6,13.3,31.8,9,37,9z"/>
	<path class="st0" d="M0,41.1v97.5c0,30.4,33.2,40.5,50.7,41.7l19,0l0.1,0c17.5-1.1,50.7-11.3,50.7-41.7V41.1H0z M111.6,138.6
		c0,29-39.1,32.5-42.1,32.7H51.2C48.1,171.1,9,167.5,9,138.6v-10.7l0.1,0v-6.3l14,9.4c0,0-5.8,27,27.9,26.3v-23.9L9,108.2v-58h102.6
		V138.6z"/>
	<path class="st0" d="M69.6,157.2c30.7-1.2,27.9-18.6,27.9-18.6V66.4H70v48.5l-17.3-10.7V66.6H23.1v33l46.5,27.6V157.2z"/>
</g>
</svg>
