<?xml version="1.0" encoding="utf-8"?>
<!-- Generator: Adobe Illustrator 21.0.0, SVG Export Plug-In . SVG Version: 6.00 Build 0)  -->
<svg version="1.1" id="Camada_1" xmlns="http://www.w3.org/2000/svg" xmlns:xlink="http://www.w3.org/1999/xlink" x="0px" y="0px"
	 viewBox="0 0 236.6 85.6" style="enable-background:new 0 0 236.6 85.6;" xml:space="preserve">
<style type="text/css">
	.st0{fill:#1F0F3D;}
</style>
<g>
	<path class="st0" d="M39.7,17.5c4.8,0,8.8-3.9,8.8-8.8c0-4.8-3.9-8.8-8.8-8.8c-4.8,0-8.8,3.9-8.8,8.8
		C30.9,13.6,34.9,17.5,39.7,17.5z M39.7,4.3c2.5,0,4.5,2,4.5,4.5s-2,4.5-4.5,4.5c-2.5,0-4.5-2-4.5-4.5S37.2,4.3,39.7,4.3z"/>
	<path class="st0" d="M17.6,17.5c4.8,0,8.8-3.9,8.8-8.8c0-4.8-3.9-8.8-8.8-8.8h0c-4.8,0-8.8,3.9-8.8,8.8
		C8.8,13.6,12.8,17.5,17.6,17.5z M17.6,4.3L17.6,4.3c2.5,0,4.5,2,4.5,4.5c0,2.5-2,4.5-4.5,4.5c-2.5,0-4.5-2-4.5-4.5
		C13.1,6.3,15.1,4.3,17.6,4.3z"/>
	<path class="st0" d="M0,19.5v46.3c0,14.4,15.8,19.3,24.1,19.8l9,0l0.1,0c8.3-0.5,24.1-5.4,24.1-19.8V19.5H0z M53,65.8
		c0,13.8-18.6,15.4-20,15.5h-8.7c-1.5-0.1-20-1.8-20-15.5v-5.1l0,0v-3l6.7,4.4c0,0-2.8,12.8,13.3,12.5V63.3l-19.9-12V23.8H53V65.8z"
		/>
	<path class="st0" d="M33.1,74.7c14.6-0.6,13.3-8.8,13.3-8.8V31.5H33.2v23L25,49.5V31.6H11v15.7l22.1,13.1V74.7z"/>
	<g>
		<g>
			<path class="st0" d="M151.6,19.8c1.6,0,3,0,4.4,0c0.2,0,0.6,0.5,0.7,0.8c0.1,1,0,2,0,2.9c0,6.9,0,13.8,0,20.8
				c0,1-0.2,1.4-1.3,1.3c-1.3-0.1-2.9,0.3-3.9-0.2c-1-0.5-1.6-2-2.4-3c-3.3-4.5-6.6-9.1-9.9-13.6c-0.2-0.3-0.5-0.7-1-0.9
				c0,5.9,0,11.7,0,17.7c-1.8,0-3.4,0-5.1,0c0-0.4-0.1-0.7-0.1-1.1c0-7.8,0-15.7,0-23.5c0-1,0.3-1.3,1.2-1.2c1.1,0.1,2.2,0.1,3.3,0
				c0.7,0,1.2,0.3,1.6,0.8c3.8,5.3,7.7,10.5,11.6,15.7c0.2,0.3,0.5,0.6,0.9,0.8C151.6,31.5,151.6,25.7,151.6,19.8z"/>
		</g>
		<g>
			<path class="st0" d="M127.7,41.1c0,1.4,0,2.7,0,3.9c0,0.2-0.4,0.5-0.6,0.5c-6,0-12,0-18.1,0c0-0.5-0.1-0.9-0.1-1.2
				c0-7.8,0-15.6,0-23.4c0-0.9,0.2-1.2,1.2-1.2c5.5,0,10.9,0,16.4,0c1,0,1.3,0.3,1.2,1.3c-0.1,0.7-0.1,1.5,0,2.2c0.1,0.8-0.3,1-1,1
				c-3.8,0-7.5,0-11.3,0c-1.4,0-1.4,0-1.4,1.4c0,1.5,0,3,0,4.6c0.5,0,0.9,0,1.3,0c3.7,0,7.4,0,11.1,0c0.8,0,1.2,0.2,1.1,1.1
				c-0.1,1.1,0.2,2.5-0.3,3.1c-0.5,0.5-2,0.2-3,0.2c-3,0-5.9,0-8.9,0c-1,0-1.3,0.3-1.3,1.3c0.1,1.3,0.1,2.7,0,4
				c0,0.9,0.3,1.2,1.2,1.2c3.7,0,7.5,0,11.2,0C126.7,41.1,127.1,41.1,127.7,41.1z"/>
		</g>
		<g>
			<path class="st0" d="M205.5,19.8c1.6,0,3,0,4.5,0c0.2,0,0.7,0.5,0.7,0.7c0,5.4,0.2,10.8-0.1,16.2c-0.2,5.2-3.6,8.4-8.8,9.2
				c-2.7,0.4-5.4,0.3-8-0.6c-4.2-1.4-6.3-4.6-6.5-8.9c-0.1-3.2-0.1-6.4-0.1-9.7c0-2,0-4.1,0-6.1c0-0.7,0.2-1,0.9-0.9
				c1,0,2.1,0.1,3.2,0c0.9-0.1,1.1,0.3,1.1,1.1c0,4.6,0,9.1,0,13.7c0,0.9,0,1.8,0.3,2.7c1,3.8,4.5,4.9,7.8,4.2c3.3-0.6,5-2.8,5-6.2
				c0.1-4.7,0-9.4,0-14C205.5,20.9,205.5,20.4,205.5,19.8z"/>
		</g>
		<g>
			<path class="st0" d="M85.1,38.4c1.8,1.6,3.7,2.8,5.9,3.1c1.8,0.2,3.7,0.2,5.5-0.2c0.9-0.2,1.8-1.1,2.3-2c0.7-1.4,0-2.8-1.7-3.4
				c-2-0.7-4-1.1-6-1.7c-1-0.3-2.1-0.6-3.1-1c-2.3-1-4.1-2.6-4.3-5.4c-0.3-2.8,0.8-4.9,3-6.6c1.9-1.4,4-2,6.3-2
				c3.5-0.1,6.8,0.6,9.7,2.8c0.3,0.2,0.6,0.5,1,0.8c-0.8,1.2-1.6,2.3-2.3,3.5c-1.3-0.7-2.3-1.4-3.5-1.9c-2.2-0.9-4.5-1.2-6.8-0.4
				c-0.6,0.2-1.2,0.6-1.6,1.1c-1.1,1.2-0.8,2.9,0.7,3.5c1.7,0.7,3.6,1.1,5.4,1.6c1.3,0.4,2.7,0.7,4,1.3c2.8,1.2,4.6,3.2,4.6,6.4
				c0,3.3-1.4,5.8-4.4,7c-5.7,2.3-11.1,1.6-16.2-1.9c-0.7-0.5-0.9-1-0.4-1.8C83.9,40.4,84.4,39.4,85.1,38.4z"/>
		</g>
		<g>
			<path class="st0" d="M181.9,23c-0.8,1.2-1.6,2.3-2.4,3.5c-0.4-0.3-0.7-0.5-1.1-0.8c-2.8-1.8-5.8-2.7-9.2-1.6
				c-0.6,0.2-1.1,0.6-1.5,1c-1.2,1.2-0.9,2.9,0.7,3.5c2.1,0.8,4.4,1.3,6.5,1.9c1,0.3,2,0.6,2.9,1c2.8,1.2,4.6,3.2,4.6,6.5
				c0,3.3-1.5,5.6-4.3,6.9c-3.2,1.5-6.6,1.6-10.1,0.9c-2.3-0.5-4.5-1.4-6.3-2.9c-0.5-0.4-0.7-0.8-0.2-1.4c0.7-1,1.3-2,1.9-3.1
				c1.8,1.6,3.7,2.8,6,3.1c1.8,0.2,3.7,0.2,5.5-0.2c0.9-0.2,1.8-1.1,2.2-2c0.7-1.5,0-2.8-1.7-3.4c-2-0.7-4-1.1-6-1.7
				c-1-0.3-2.1-0.6-3.1-1c-2.3-1-4.1-2.6-4.3-5.4c-0.3-2.8,0.9-4.9,3.1-6.6c1.9-1.4,4-1.9,6.3-2c3.6-0.1,6.9,0.7,9.8,2.9
				C181.3,22.4,181.5,22.7,181.9,23z"/>
		</g>
		<g>
			<path class="st0" d="M217.6,38.4c1.7,1.5,3.6,2.8,5.8,3.1c1.8,0.2,3.7,0.1,5.5-0.1c0.6,0,1.2-0.5,1.6-1c1.4-1.4,1.2-3.5-0.7-4.3
				c-2-0.8-4.2-1.3-6.3-1.9c-1.1-0.3-2.2-0.6-3.2-1.1c-2.3-1-4-2.7-4.3-5.4c-0.2-2.8,0.9-4.9,3.1-6.5c1.9-1.4,4-1.9,6.3-2
				c3.6-0.1,7,0.7,9.9,3c0.6,0.5,0.8,0.9,0.2,1.5c-0.5,0.6-0.9,1.2-1.2,1.8c-0.4,0.8-0.8,0.9-1.6,0.3c-2.3-1.7-5-2.5-7.9-2.1
				c-1,0.1-2,0.6-2.8,1.2c-1.4,1.2-1.1,3,0.6,3.7c1.7,0.7,3.5,1.1,5.3,1.6c1.3,0.4,2.7,0.7,4,1.3c2.9,1.2,4.7,3.2,4.7,6.5
				c0,3.3-1.5,5.7-4.5,6.9c-5.6,2.3-11,1.6-16.1-1.9c-0.8-0.5-0.9-1-0.3-1.8c0.6-0.8,1.1-1.6,1.6-2.5
				C217.3,38.7,217.4,38.6,217.6,38.4z"/>
		</g>
	</g>
	<g>
		<g>
			<path class="st0" d="M84.3,77.6c0-7.4,0-14.6,0-21.9c0.3,0,0.5-0.1,0.8-0.1c2.7,0,5.5,0,8.2,0c3.3,0,6.3,1,8.7,3.5
				c4.8,5,3.8,15.8-5.3,18c-1.5,0.3-3,0.5-4.5,0.5C89.6,77.6,87,77.6,84.3,77.6z M88.5,66.6c0,2.1,0,4.3,0,6.4
				c0,0.6,0.2,0.8,0.8,0.8c1.4,0,2.7,0,4.1,0c3.7-0.1,6.2-2.2,6.8-5.9c0.6-3.7-1.3-8-6.2-8.4c-1.5-0.1-3.1,0-4.6-0.1
				c-0.7,0-0.9,0.2-0.9,0.9C88.6,62.4,88.5,64.5,88.5,66.6z"/>
		</g>
		<g>
			<path class="st0" d="M188.8,69.3c1.8,2.7,3.7,5.4,5.6,8.2c-1.7,0-3.2,0-4.8,0c-0.2,0-0.5-0.4-0.7-0.7c-1.4-2.2-2.7-4.3-4.1-6.5
				c-0.3-0.5-0.7-0.8-1.3-0.8c-0.7,0.1-1.4,0-2.1,0c-0.7,0-0.8,0.2-0.8,0.9c0,2.1,0,4.2,0,6.3c0,0.6-0.2,0.9-0.8,0.8
				c-1.1,0-2.2,0-3.4,0c0-0.4-0.1-0.7-0.1-1c0-6.7,0-13.3,0-20c0-0.8,0.2-1,1-1c3.2,0,6.4,0,9.5,0c2.9,0,5.3,1.1,6.7,3.8
				c1.5,3,0.9,8.3-4,9.7C189.3,69.1,189.1,69.2,188.8,69.3z M183.9,65.8C183.9,65.9,183.9,65.9,183.9,65.8c1,0,2,0,3-0.1
				c1.9-0.3,2.8-1.5,2.8-3.3c-0.1-1.7-1.1-2.8-2.9-3c-1.8-0.1-3.7-0.1-5.5,0c-0.2,0-0.6,0.4-0.6,0.7c-0.1,1.7,0,3.4,0,5.1
				c0,0.5,0.2,0.7,0.7,0.7C182.1,65.8,183,65.8,183.9,65.8z"/>
		</g>
		<g>
			<path class="st0" d="M171.8,66.6c0,6.7-5,11.5-11.7,11.5c-6.7,0-11.6-5-11.6-11.7c0-6.6,5-11.4,11.9-11.3
				C167.1,55.1,171.9,60,171.8,66.6z M167.5,66.7c-0.1-0.8-0.2-1.5-0.4-2.3c-0.6-2.5-2-4.3-4.4-5.1c-2.6-0.8-5.1-0.6-7.2,1.3
				c-2.2,1.9-2.7,4.5-2.3,7.2c0.4,3.5,3.1,6.1,6.6,6.3C164.1,74.5,167.4,71.3,167.5,66.7z"/>
		</g>
		<g>
			<path class="st0" d="M113.3,64.5c3.4,0,6.7,0,10,0c1.7,0,1.5-0.1,1.5,1.5c0,2.3,0,2.3-2.3,2.3c-2.7,0-5.4,0-8.2,0
				c-0.8,0-1,0.2-1,1c0.1,1.1,0.1,2.3,0,3.4c-0.1,0.9,0.3,1.1,1.2,1.1c3.1,0,6.3,0,9.4,0c0.3,0,0.7,0,1,0c0,1.3,0,2.5,0,3.7
				c-5.3,0-10.6,0-15.9,0c0-0.3-0.1-0.6-0.1-1c0-6.6,0-13.3,0-19.9c0-0.9,0.3-1.1,1.1-1.1c4.6,0,9.3,0,13.9,0c0.9,0,1.2,0.3,1.1,1.1
				c-0.1,0.6,0,1.2,0,1.8c0.1,0.7-0.2,1-0.9,1c-3.2,0-6.4,0-9.5,0c-1.2,0-1.2,0-1.2,1.2C113.3,61.8,113.3,63.1,113.3,64.5z"/>
		</g>
		<g>
			<path class="st0" d="M133.9,65.5c0.8-0.9,1.5-1.7,2.1-2.4c2-2.3,4-4.6,6-6.9c0.3-0.3,0.8-0.6,1.2-0.6c1.4-0.1,2.8,0,4.5,0
				c-0.4,0.5-0.6,0.7-0.8,1c-2.6,2.9-5.2,5.8-7.9,8.7c-0.5,0.6-0.5,0.9,0,1.4c2.8,3.2,5.6,6.4,8.4,9.6c0.3,0.3,0.6,0.7,1,1.2
				c-1.9,0-3.5,0-5.2,0c-0.2,0-0.5-0.4-0.7-0.7c-2.1-2.5-4.2-5-6.3-7.5c-0.2-0.2-0.4-0.4-0.7-0.8c-0.9,1-2,1.6-1.9,3.2
				c0.1,1.7,0,3.3,0,5c0,0.6-0.2,0.9-0.8,0.8c-1.1,0-2.2,0-3.4,0c0-0.4-0.1-0.7-0.1-1c0-6.7,0-13.3,0-20c0-0.7,0.2-1.1,1-1
				c0.8,0.1,1.7,0,2.5,0c0.7,0,0.9,0.2,0.9,0.9c0,2.6,0,5.2,0,7.8C133.9,64.6,133.9,64.9,133.9,65.5z"/>
		</g>
		<g>
			<path class="st0" d="M115.4,50.7c0,1.3-1,2.4-2.2,2.4c-1.3,0-2.4-1-2.4-2.4c0-1.3,1.1-2.3,2.4-2.3
				C114.4,48.4,115.4,49.4,115.4,50.7z"/>
		</g>
		<g>
			<path class="st0" d="M123.8,50.7c0,1.3-1,2.3-2.3,2.3c-1.3,0-2.4-1.1-2.4-2.4c0-1.2,1.1-2.3,2.5-2.2
				C122.8,48.4,123.8,49.4,123.8,50.7z"/>
		</g>
	</g>
</g>
</svg>
