<?xml version="1.0" encoding="utf-8"?>
<!-- Generator: Adobe Illustrator 21.0.0, SVG Export Plug-In . SVG Version: 6.00 Build 0)  -->
<svg version="1.1" id="Camada_1" xmlns="http://www.w3.org/2000/svg" xmlns:xlink="http://www.w3.org/1999/xlink" x="0px" y="0px"
	 viewBox="0 0 135.2 135.2" style="enable-background:new 0 0 135.2 135.2;" xml:space="preserve">
<style type="text/css">
	.st0{fill:#1F0F3D;stroke:#231F20;stroke-width:0.25;stroke-miterlimit:10;}
</style>
<g>
	<g>
		<path class="st0" d="M67.6,135c-37.2,0-67.5-30.3-67.5-67.5c0-37.2,30.3-67.5,67.5-67.5c37.2,0,67.5,30.3,67.5,67.5
			C135,104.8,104.8,135,67.6,135z M67.6,1C30.9,1,1,30.9,1,67.6s29.9,66.6,66.6,66.6c36.7,0,66.6-29.9,66.6-66.6S104.3,1,67.6,1z"/>
	</g>
	<g>
		<path class="st0" d="M67.6,112.6c-24.8,0-45-20.2-45-45s20.2-45,45-45s45,20.2,45,45S92.4,112.6,67.6,112.6z M67.6,23.5
			c-24.3,0-44.1,19.8-44.1,44.1c0,24.3,19.8,44.1,44.1,44.1c24.3,0,44.1-19.8,44.1-44.1C111.7,43.3,91.9,23.5,67.6,23.5z"/>
	</g>
	<g>
		<path class="st0" d="M19.9,45.5c-0.5,1-1.3,1.8-2.3,2.1l-0.4-1.2c0.8-0.3,1.4-0.8,1.7-1.5c0.5-0.9,0.3-1.4,0-1.5
			c-0.2-0.1-0.5-0.1-1.1,0.6c-0.1,0.1-0.7,0.8-0.8,0.9c-0.8,0.9-1.6,1.5-2.5,1.1c-0.9-0.4-1.2-1.7-0.4-3.2c0.5-1,1.3-1.6,2.2-1.9
			l0.4,1.2c-0.6,0.2-1.2,0.6-1.5,1.2c-0.5,0.9-0.3,1.4-0.1,1.5c0.2,0.1,0.5-0.1,1.2-0.8c0.1-0.1,0.6-0.7,0.7-0.8
			c0.9-1,1.8-1.3,2.5-0.9C20.4,42.6,20.8,43.8,19.9,45.5z"/>
		<path class="st0" d="M23,40l-0.7,1.1l-5.2-3.4l0.7-1.1L23,40z"/>
		<path class="st0" d="M23.7,30.8l-1.4,1.7l0.1,0l3.8,3.1l-0.8,1l-3.8-3.1l-0.1-0.1l-1.4,1.7l-0.9-0.7l3.5-4.4L23.7,30.8z"/>
		<path class="st0" d="M32.7,29.1l-3.7,3.5l-4.3-4.5l3.7-3.5l0.8,0.8l-2.9,2.7l0.2,0l0.8,0.8l0,0.2l2.6-2.5l0.8,0.8L28.1,30l0.2,0
			l0.8,0.8l0,0.2l2.9-2.7L32.7,29.1z"/>
		<path class="st0" d="M41.5,21.7c-0.2,1-0.7,1.8-1.6,2.3c-1.9,1.1-3.5,0.6-4.5-0.9c-1-1.6-0.7-3.4,1.1-4.5c0.9-0.6,1.8-0.7,2.8-0.4
			l-0.3,1.2c-0.6-0.3-1.2-0.2-1.9,0.2c-1.2,0.7-1.2,1.8-0.6,2.8c0.6,1,1.5,1.4,2.7,0.6c0.6-0.4,1-0.9,1-1.6L41.5,21.7z"/>
		<path class="st0" d="M46.6,20.6c-1.9,0.8-3.4,0.1-4.2-1.6c-0.7-1.7-0.3-3.4,1.7-4.2c1.9-0.8,3.5,0,4.2,1.7
			C49,18.1,48.5,19.8,46.6,20.6z M44.5,15.8c-1.2,0.5-1.4,1.5-0.9,2.6c0.5,1.1,1.3,1.6,2.5,1.1c1.2-0.5,1.4-1.5,0.9-2.6
			C46.6,15.9,45.7,15.3,44.5,15.8z"/>
		<path class="st0" d="M57,17.2l-1.1,0.3l-3.6-2.6l-0.6-0.6l0,0l1,4l-1.3,0.3l-1.5-6l1.1-0.3l3.6,2.6l0.6,0.6l0,0l-1-4l1.3-0.3
			L57,17.2z"/>
		<path class="st0" d="M64.9,15.1c-0.6,0.8-1.4,1.3-2.5,1.4c-2.2,0.2-3.4-0.9-3.6-2.8c-0.2-1.8,0.8-3.3,3-3.5c1.1-0.1,2,0.1,2.7,0.8
			l-0.8,1c-0.5-0.5-1-0.7-1.8-0.6c-1.4,0.1-1.9,1.1-1.8,2.3c0.1,1.1,0.8,1.9,2.2,1.8c0.7-0.1,1.3-0.4,1.6-1L64.9,15.1z"/>
		<path class="st0" d="M72.1,16.3L67,16.1l0.2-6.2l5.1,0.2l0,1.2l-4-0.1l0.1,0.1l0,1.1l-0.1,0.1l3.6,0.1l0,1.2l-3.6-0.1l0.1,0.1
			l0,1.1L68.2,15l4,0.1L72.1,16.3z"/>
		<path class="st0" d="M77.6,17.1l-3.1-0.6l1.1-6.1l3.1,0.5c1.4,0.3,2,1.2,1.8,2.1c-0.1,0.5-0.3,0.9-0.8,1.1l0,0
			c0.5,0.3,0.7,0.8,0.6,1.5C80,16.8,79,17.4,77.6,17.1z M78,14.5l-2-0.4l0.1,0.1l-0.2,1.2l-0.1,0.1l2,0.4c0.8,0.1,1.1-0.1,1.2-0.5
			C79,15,78.8,14.7,78,14.5z M78.3,12.1l-1.8-0.3l0.1,0.1L76.4,13l-0.1,0.1l1.8,0.3c0.7,0.1,1-0.1,1-0.5
			C79.2,12.5,79,12.3,78.3,12.1z"/>
		<path class="st0" d="M83.2,18.5L82,18.2l1.7-6l1.2,0.4L83.2,18.5z"/>
		<path class="st0" d="M88.1,20.3l-2.5-1l2.4-5.7l2.4,1c2.5,1,2.2,2.8,1.7,4.1C91.6,19.9,90.5,21.3,88.1,20.3z M89.9,15.6L88.7,15
			l0.1,0.2l-1.4,3.4l-0.2,0.1l1.3,0.5c1.5,0.6,2,0,2.5-1.1C91.4,17.1,91.4,16.2,89.9,15.6z"/>
		<path class="st0" d="M95.3,24c-1.8-1.1-2.1-2.8-1.1-4.3c1-1.6,2.6-2.2,4.4-1.1c1.8,1.1,2,2.8,1.1,4.4C98.7,24.6,97.1,25.1,95.3,24
			z M98,19.6c-1.1-0.7-2-0.2-2.7,0.8c-0.6,1-0.6,2,0.6,2.7c1.1,0.7,2,0.3,2.6-0.7C99.2,21.3,99.2,20.3,98,19.6z"/>
		<path class="st0" d="M106.3,29.7l-1.4-1.3l0,0.2l-1.4,1.5l-0.9-0.9l4.3-4.5l2.3,2.1c1.1,1,1.1,2.2,0.3,3.1
			C108.6,30.7,107.4,30.7,106.3,29.7z M108.3,27.6l-1.4-1.3l0,0.2l-1,1.1l-0.2,0l1.4,1.3c0.5,0.5,1,0.4,1.3,0.1
			C108.8,28.6,108.8,28.1,108.3,27.6z"/>
		<path class="st0" d="M109.7,36.8c-1.3-1.6-1-3.3,0.5-4.5c1.5-1.1,3.2-1.1,4.5,0.5c1.3,1.7,0.9,3.4-0.6,4.5
			C112.7,38.5,111,38.4,109.7,36.8z M113.8,33.6c-0.8-1-1.8-0.9-2.8-0.2c-0.9,0.7-1.2,1.7-0.4,2.7c0.8,1,1.8,1,2.7,0.3
			C114.2,35.6,114.6,34.6,113.8,33.6z"/>
		<path class="st0" d="M115.9,46.3l-0.7-1.3l1-1.5c0.3-0.5,0.3-0.9,0-1.5l-0.6-1.1l0,0.2l-1.9,1.1l-0.6-1.1l5.4-3.1l1.5,2.6
			c0.6,1.1,0.6,2.4-0.5,3c-0.6,0.3-1.3,0.2-1.8-0.2l0,0c0,0.2-0.1,0.6-0.3,0.9L115.9,46.3z M118.7,41.2l-0.9-1.6l0,0.2l-1.2,0.7
			l-0.2,0l0.9,1.5c0.4,0.7,0.9,0.8,1.2,0.6C119,42.2,119.1,41.8,118.7,41.2z"/>
	</g>
	<g id="XMLID_54_">
		<g id="XMLID_55_">
			<path class="st0" d="M78.4,93.8L66.5,83.1L54.7,93.8l-0.8-0.4c-6.8-3.1-10-7.9-11.4-11.4c-1.6-3.8-1.5-6.9-1.5-7l0-0.6l2.8-2.5
				l-4.2-3.8l-0.1-0.2c-4.1-8.1-2.4-14.5-0.2-18.5c2.3-4.2,5.6-6.6,5.8-6.7l0.9-0.6l10.2,9.2l10.3-9.2l10.3,9.2l10.2-9.2l0.9,0.6
				c0.1,0.1,3.4,2.4,5.8,6.7c2.2,4,3.9,10.4-0.2,18.5l-0.1,0.2l-4.2,3.8l2.8,2.5l0,0.6c0,0.1,0.1,3.2-1.5,7
				c-1.4,3.5-4.6,8.3-11.4,11.4L78.4,93.8z M43.8,75.6c0.1,1,0.3,3,1.3,5.4c1.7,4.1,4.8,7.2,9.1,9.4l12.3-11.1l12.3,11.1
				c9.1-4.5,10.3-12.6,10.4-14.8l-4.1-3.8l6.1-5.5c2.7-5.5,2.8-10.7,0.2-15.5c-1.3-2.5-3.1-4.2-4.1-5.1l-10.4,9.4l-10.3-9.2
				l-10.3,9.2l-10.4-9.4c-1,0.9-2.8,2.6-4.1,5.1c-2.6,4.8-2.6,10,0.2,15.5l6.1,5.5L43.8,75.6z M79.1,85l-10.4-9.1l0-2.4V68
				l18.4-16.6l0.9,1c0.1,0.1,1.3,1.5,1.7,3.6c0.4,2,0.3,5.1-2.6,8.4l-0.1,0.1L79,71.9l4.5,4.1l0.1,0.4c0,0.2,0.8,3.9-3.6,7.8
				L79.1,85z M71.5,74.7l7.5,6.6c1.6-1.8,1.8-3.2,1.9-3.9l-6.1-5.5l10.3-9.3c1.7-2,2.3-3.9,2-5.9c-0.1-0.5-0.2-0.9-0.4-1.2
				L71.5,69.2v4.4L71.5,74.7z M54,85l-0.9-0.8c-4.4-4-3.6-7.7-3.6-7.8l0.1-0.4l4.5-4.1L46,64.5L46,64.5c-2.9-3.4-3-6.4-2.6-8.4
				c0.4-2.1,1.6-3.5,1.7-3.6l0.9-1L64.4,68v5.6l0,2.4L54,85z M52.2,77.3c0,0.7,0.3,2.1,1.9,3.9l7.5-6.6l0-1.1v-4.4L46.4,55.5
				c-0.1,0.3-0.3,0.7-0.4,1.2c-0.4,1.9,0.3,3.9,2,5.9l10.3,9.3L52.2,77.3z M66.5,64.4l-7.2-6.5l7.2-6.4l7.2,6.4L66.5,64.4z
				 M63.5,57.9l3.1,2.7l3.1-2.7l-3.1-2.7L63.5,57.9z"/>
		</g>
	</g>
	<g>
		<circle class="st0" cx="123.2" cy="67.6" r="2.8"/>
	</g>
	<g>
		<circle class="st0" cx="12" cy="68.7" r="2.8"/>
	</g>
	<g>
		<path class="st0" d="M10.3,84.7l-0.6-1l4.7-2.9l0.6,1L10.3,84.7z"/>
		<path class="st0" d="M12.8,91.7l-0.4-0.9l1.9-3.5l0.4-0.6l0,0l-3.4,1.4L10.9,87l5.1-2.1l0.4,0.9l-1.9,3.5l-0.4,0.6l0,0l3.4-1.4
			l0.4,1.1L12.8,91.7z"/>
		<path class="st0" d="M16.6,98.6l-0.5-0.9l1.4-3.7l0.4-0.7l0,0l-3.2,1.8l-0.6-1l4.8-2.8l0.5,0.9L18,96l-0.4,0.6l0,0l3.2-1.8l0.6,1
			L16.6,98.6z"/>
		<path class="st0" d="M19.7,103.1c-1.1-1.5-0.8-3,0.5-4c1.3-1,2.9-1,4,0.5c1.2,1.5,0.8,3-0.5,4C22.3,104.6,20.8,104.5,19.7,103.1z
			 M23.4,100.2c-0.7-0.9-1.6-0.9-2.5-0.2c-0.8,0.6-1.1,1.5-0.4,2.4c0.7,0.9,1.6,0.9,2.4,0.3C23.8,102.1,24.1,101.2,23.4,100.2z"/>
		<path class="st0" d="M27.4,111.4l-0.8-0.8l2.2-2.3l0,0l-0.6,0.2l-3,0.8l0,0l0.8-3l0.2-0.6l0,0l-2.2,2.3l-0.8-0.8l3.9-4l0.7,0.7
			l-0.9,3.4l-0.2,0.6l0,0l0.6-0.3l3.4-0.9l0.7,0.7L27.4,111.4z"/>
		<path class="st0" d="M30.5,113.9l-0.9-0.7l3.5-4.4l0.9,0.7L30.5,113.9z"/>
		<path class="st0" d="M36.9,118.3l-0.8-0.5l-0.4-3.9l0-0.8l0,0l-2,3.1l-1-0.6l3-4.7l0.8,0.5l0.5,4l0,0.7l0,0l2-3.1l1,0.6
			L36.9,118.3z"/>
		<path class="st0" d="M44.6,122.2l-1.2-0.6l0-1.4l0.1-0.1L41,119l0,0.1l-1,0.9l-1.2-0.6l4.8-3.9l0.9,0.4L44.6,122.2z M43.5,119.1
			l-0.1-0.1l0-1.3l0.1-0.5l0,0l-0.4,0.4l-1,0.8l-0.2,0L43.5,119.1z"/>
		<path class="st0" d="M51.9,120l-1.9-0.6l0,0.1l-1.4,4.2l-1.1-0.4l1.4-4.2L49,119l-1.9-0.6l0.3-1l4.8,1.6L51.9,120z"/>
		<path class="st0" d="M58.2,123.4c-0.3,1.6-1.4,2.4-3.1,2c-1.7-0.4-2.4-1.5-2-3.1l0.6-2.9l1.1,0.2l-0.6,2.9c-0.2,1,0,1.6,1.1,1.9
			c1,0.2,1.5-0.2,1.8-1.3l0.6-2.9l1.1,0.2L58.2,123.4z"/>
		<path class="st0" d="M66.4,126.8l-1.2-0.1l0.2-3.2l0,0l-0.3,0.6l-1.7,2.6l0,0l-1.4-2.8l-0.2-0.6l0,0l-0.2,3.2l-1.2-0.1l0.4-5.6
			l1,0.1l1.6,3.2l0.2,0.6l0,0l0.3-0.6l2-2.9l1,0.1L66.4,126.8z"/>
		<path class="st0" d="M77.6,125c-0.5,0.7-1.3,1.2-2.2,1.3c-1.9,0.2-3.1-0.8-3.3-2.4c-0.2-1.6,0.7-3,2.6-3.2c1-0.1,1.8,0.1,2.4,0.7
			l-0.7,0.9c-0.4-0.4-0.9-0.6-1.6-0.6c-1.3,0.2-1.7,1-1.6,2c0.1,1,0.7,1.7,2,1.5c0.7-0.1,1.2-0.4,1.5-0.9L77.6,125z"/>
		<path class="st0" d="M82.6,124.9c-1.8,0.5-3.1-0.4-3.5-2c-0.4-1.6,0.3-3,2.1-3.5c1.8-0.5,3.1,0.5,3.5,2.1
			C85.1,123.1,84.4,124.5,82.6,124.9z M81.4,120.4c-1.1,0.3-1.4,1.2-1.2,2.2c0.3,1,0.9,1.6,2.1,1.3c1.2-0.3,1.4-1.1,1.2-2.1
			C83.2,120.8,82.6,120.1,81.4,120.4z"/>
		<path class="st0" d="M92.5,121.5l-0.9,0.4l-3.5-1.9l-0.6-0.5l0,0l1.4,3.5l-1.1,0.4l-2-5.2l0.9-0.4l3.5,1.9l0.6,0.4l0,0l-1.4-3.4
			l1.1-0.4L92.5,121.5z"/>
		<path class="st0" d="M97.1,119.2c-0.9,0.5-1.9,0.7-2.8,0.4l0.3-1.1c0.7,0.2,1.4,0.1,2-0.2c0.8-0.4,1-0.9,0.8-1.1
			c-0.1-0.2-0.4-0.3-1.1-0.1c-0.1,0-0.9,0.2-1,0.3c-1,0.3-1.9,0.4-2.4-0.5c-0.4-0.8,0-1.8,1.4-2.6c0.9-0.5,1.8-0.6,2.6-0.3l-0.3,1.1
			c-0.6-0.2-1.2-0.2-1.8,0.1c-0.8,0.4-0.9,0.8-0.8,1.1c0.1,0.2,0.4,0.2,1.3,0c0.1,0,0.8-0.2,0.9-0.2c1.2-0.3,2-0.1,2.3,0.6
			C98.9,117.3,98.6,118.4,97.1,119.2z"/>
		<path class="st0" d="M104,111.5c1,1.3,0.9,2.6-0.6,3.7c-1.4,1.1-2.7,0.8-3.7-0.6l-1.8-2.4l0.9-0.7l1.8,2.4
			c0.6,0.8,1.2,1.1,2.1,0.4c0.9-0.6,0.9-1.3,0.2-2.1l-1.8-2.4l0.9-0.7L104,111.5z"/>
		<path class="st0" d="M110.7,108.9l-3.1,2.9l-3.8-4.1l0.9-0.8l3,3.2l0,0.1l2.4-2.2L110.7,108.9z"/>
		<path class="st0" d="M111.4,101.4l-1.3,1.5l0.1,0l3.3,2.9l-0.8,0.9l-3.3-2.9l0-0.1l-1.3,1.5l-0.8-0.7l3.3-3.8L111.4,101.4z"/>
		<path class="st0" d="M117.7,100.5c-1.1,1.5-2.6,1.7-3.9,0.8c-1.4-0.9-1.8-2.5-0.7-4c1.1-1.6,2.6-1.7,4-0.7
			C118.4,97.5,118.7,99,117.7,100.5z M113.9,97.9c-0.7,1-0.3,1.8,0.6,2.4c0.9,0.6,1.7,0.6,2.4-0.4c0.7-1,0.3-1.8-0.5-2.4
			C115.5,96.9,114.5,96.9,113.9,97.9z"/>
		<path class="st0" d="M123,91.1l-0.6,1.2l-1.7,0c-0.5,0-0.8,0.2-1.1,0.8l-0.5,1l0.1-0.1l1.8,0.9l-0.5,1l-4.9-2.5l1.2-2.4
			c0.5-1,1.5-1.6,2.5-1.1c0.5,0.3,0.8,0.9,0.8,1.5l0,0c0.2-0.1,0.4-0.2,0.8-0.2L123,91.1z M117.7,91.5l-0.7,1.5l0.1-0.1l1.1,0.6
			l0,0.1l0.7-1.4c0.3-0.6,0.2-1.1-0.2-1.2C118.4,90.7,118,90.9,117.7,91.5z"/>
		<path class="st0" d="M124.2,88l-0.4,1.1l-5.2-2.1l0.4-1.1L124.2,88z"/>
		<path class="st0" d="M126.8,79.9l-0.4,1.2l-1.3,0.2l-0.1-0.1l-0.8,2.7l0.1,0l1,0.9L125,86l-4.6-4.1l0.3-1L126.8,79.9z M124,81.4
			l-0.1,0.1l-1.3,0.2l-0.5,0l0,0l0.4,0.3l1,0.9l0.1,0.1L124,81.4z"/>
	</g>
</g>
</svg>
